<?xml version="1.0" encoding="utf-8" ?>
<svg xmlns="http://www.w3.org/2000/svg" xmlns:xlink="http://www.w3.org/1999/xlink" width="127" height="126">
	<path fill="#958A7E" transform="scale(0.0309302 0.030928)" d="M2862.33 3439.74C2854.5 3445.83 2846.11 3451.18 2841.48 3460.14C2807.04 3479.71 2769.71 3494.53 2733.61 3510.84Q2701.18 3525.33 2668.4 3539.02Q2635.62 3552.72 2602.51 3565.61Q2569.4 3578.51 2535.99 3590.6Q2502.57 3602.68 2468.87 3613.95Q2435.17 3625.22 2401.2 3635.67Q2367.23 3646.12 2333.01 3655.74Q2298.79 3665.36 2264.35 3674.15Q2229.91 3682.93 2195.26 3690.88Q2094.99 3713.76 1994.23 3734.43C1970.59 3739.31 1946.13 3742.07 1922.72 3747.6C1887.06 3756.02 1811.07 3791.82 1777.42 3782.92C1772.52 3778.72 1771.8 3774.6 1770.27 3768.65C1775.73 3768.38 1777.34 3769.01 1781.47 3765.58L1779.44 3758.63L1781.08 3756.5C1799.98 3752.11 1838.77 3739.25 1856.06 3740.48C1861.85 3740.71 1867.26 3741.39 1872.96 3742.4L1870.06 3743.09C1928.87 3741.05 1988.64 3726.16 2046.14 3714.18Q2099.63 3703.56 2152.73 3691.22Q2205.84 3678.87 2258.51 3664.81Q2311.19 3650.74 2363.37 3634.98Q2415.55 3619.21 2467.19 3601.76C2515.37 3585.89 2563.12 3570.39 2610.36 3551.83C2631.71 3543.44 2665.99 3532.94 2684.38 3519.7C2743.83 3492.94 2803.72 3468.45 2862.33 3439.74Z"/>
	<path fill="#B09264" transform="scale(0.0309302 0.030928)" d="M958.016 281.165C992.914 284.503 1029.87 282.746 1065 282.98L1299.97 284.419C1340.64 284.667 1382.55 282.566 1422.99 286.171L1420.62 286.391C1377.53 290.008 1332.48 287.238 1289.12 287.231L1052.04 287.121C1028.6 286.986 978.437 280.456 958.627 287.081C952.956 288.977 790.365 437.888 769.692 456.568L356.688 832.45L243.423 935.565C221.413 955.485 196.613 975.601 177.216 998.024L175.063 1000.56C211.92 1002.92 250.131 1000 287.228 1000.56Q377.105 1002.5 467.002 1002.73C550.797 1002.49 634.631 1000.58 718.423 1002.14C733.3 1007.38 787.319 1003.94 805.59 1003.96L1135.95 1004.65C1163.35 1004.76 1238.75 1001.5 1261.11 1006.96L592.481 1013.96C554.739 1014.58 436.956 1009.38 408.839 1017.16C324.377 1021.29 240.207 1015.3 155.813 1017.13C180.619 1081.19 235.1 1159.31 271.876 1218.57C283.753 1237.71 300.842 1259.67 309.071 1280.26C315.512 1308.98 342.754 1329.53 351.132 1357.95C402.547 1431.33 443.501 1512.82 491.079 1588.8C529.294 1649.83 578.895 1711.84 612.587 1774.93C612.143 1797.25 668.348 1880.76 681.537 1904.13C693.05 1924.52 700.94 1946.6 712.304 1967.09C730.003 1998.99 750.276 2029.24 768.567 2060.75C808.837 2130.13 847.406 2200.06 892.266 2266.75L890.151 2267.17C865.575 2242.93 823.667 2171.22 804.96 2138.48C805.996 2157.43 856.384 2230.9 854.043 2235.28C850.713 2234.22 848.551 2232.94 845.605 2231.13L1401.74 3135.42Q1523.32 3337.98 1648.07 3538.63C1687.19 3601.49 1722.88 3668.66 1768.22 3727.42C1765.42 3673.32 1768.97 3617.47 1766.94 3562.49C1766.72 3584.34 1766.34 3605.43 1761.06 3626.73C1749.49 3605.33 1739.87 3583.29 1727.09 3562.44C1720.02 3551.15 1713.94 3538.5 1710.71 3525.57C1714.38 3526.32 1717.73 3527.53 1721.29 3528.71L1723.33 3526.45L1719.39 3513.34L1723.48 3514.05L1724.13 3512.9L1728.16 3513.29C1731.43 3499.99 1728.22 3481.47 1728.04 3467.47C1727.57 3429.24 1728.69 3389.96 1724.75 3351.95C1722.46 3329.88 1716.52 3308.05 1713.01 3286.12C1709.66 3265.22 1709.29 3244.19 1708.88 3223.09C1711.17 3227.07 1712.69 3229.61 1716.51 3232.25L1719.81 3230.5C1724.85 3218.08 1723.92 3201.56 1726.12 3188.12C1729.5 3142.4 1727.11 3094.56 1727.32 3048.66C1727.61 2984.4 1729.66 2919.61 1727.5 2855.4L1730.35 2851.72C1733.93 2870.89 1736.3 2921.59 1734.33 2941.61C1736.91 2943.56 1735.97 2942.51 1737.87 2945.51C1739.78 2948.54 1738.3 2947.45 1741.67 2948.59C1740.49 2929.13 1737.1 2907.36 1741.33 2888.27C1744.41 2907.16 1744.3 2927.65 1746.12 2946.85C1748.93 2976.67 1753.41 3006.73 1755.54 3036.53C1756.25 3046.61 1751.4 3060.88 1754.32 3069.96C1758.2 3082.07 1758.92 3099.38 1757.61 3111.93C1757.22 3115.68 1757.1 3119.23 1757.03 3123L1758.42 3122.91C1763.83 3102.94 1759.75 3078.88 1760.75 3058.22C1761.69 3038.76 1765.42 3019.53 1766.37 3000.06C1767.42 2978.78 1764.1 2871.34 1770.09 2860.94C1777.88 2667.29 1775.62 2472.5 1776.65 2278.68L1778.63 2278.25L1781.11 2774.96C1781.55 2826.66 1783.7 2878.32 1784.47 2930.01Q1785.51 3057.68 1784.33 3185.35L1780.17 3575.67C1779.96 3612.81 1772.93 3660.07 1775.09 3694.2C1775.39 3698.84 1775.67 3706.39 1778.67 3710.21C1779.9 3711.78 1781.76 3712.35 1783.47 3713.2L1776.64 3714.31L1774.63 3717.52L1776.8 3719.49L1780.99 3718.41L1785.13 3724.12L1788.34 3723.65C1818.83 3719.31 1844.65 3729.35 1874.1 3733.79L1858.27 3735.66C1856.08 3739.09 1856.66 3737.42 1856.06 3740.48C1838.77 3739.25 1799.98 3752.11 1781.08 3756.5L1779.44 3758.63L1781.47 3765.58C1777.34 3769.01 1775.73 3768.38 1770.27 3768.65C1764.04 3750.89 1750.31 3732.55 1740.42 3716.46L1670.08 3604.08L1450.41 3244.98L539.807 1751.62L295.774 1351.6C256.232 1287.75 215.92 1224.71 177.907 1159.9C164.772 1137.5 150.535 1115.3 138.731 1092.2C128.221 1071.63 126.609 1054.54 127.237 1031.83C130.737 1027.08 134.946 1022.95 139.022 1018.7C175.525 984.073 213.531 950.899 250.732 917.009L620.611 584.227Q679.531 531.247 737.754 477.509C771.856 445.774 928.438 294.699 958.016 281.165Z"/>
	<path fill="#E9D39A" transform="scale(0.0309302 0.030928)" d="M1727.5 2855.4L1730.35 2851.72C1733.93 2870.89 1736.3 2921.59 1734.33 2941.61C1736.91 2943.56 1735.97 2942.51 1737.87 2945.51C1739.78 2948.54 1738.3 2947.45 1741.67 2948.59C1740.49 2929.13 1737.1 2907.36 1741.33 2888.27C1744.41 2907.16 1744.3 2927.65 1746.12 2946.85C1748.93 2976.67 1753.41 3006.73 1755.54 3036.53C1756.25 3046.61 1751.4 3060.88 1754.32 3069.96C1758.2 3082.07 1758.92 3099.38 1757.61 3111.93C1757.22 3115.68 1757.1 3119.23 1757.03 3123L1758.42 3122.91C1763.83 3102.94 1759.75 3078.88 1760.75 3058.22C1761.69 3038.76 1765.42 3019.53 1766.37 3000.06C1767.42 2978.78 1764.1 2871.34 1770.09 2860.94C1772.53 2884.65 1770.77 2909.51 1770.59 2933.38L1769.23 3077.63L1766.94 3562.49C1766.72 3584.34 1766.34 3605.43 1761.06 3626.73C1749.49 3605.33 1739.87 3583.29 1727.09 3562.44C1720.02 3551.15 1713.94 3538.5 1710.71 3525.57C1714.38 3526.32 1717.73 3527.53 1721.29 3528.71L1723.33 3526.45L1719.39 3513.34L1723.48 3514.05L1724.13 3512.9L1728.16 3513.29C1731.43 3499.99 1728.22 3481.47 1728.04 3467.47C1727.57 3429.24 1728.69 3389.96 1724.75 3351.95C1722.46 3329.88 1716.52 3308.05 1713.01 3286.12C1709.66 3265.22 1709.29 3244.19 1708.88 3223.09C1711.17 3227.07 1712.69 3229.61 1716.51 3232.25L1719.81 3230.5C1724.85 3218.08 1723.92 3201.56 1726.12 3188.12C1729.5 3142.4 1727.11 3094.56 1727.32 3048.66C1727.61 2984.4 1729.66 2919.61 1727.5 2855.4Z"/>
	<path fill="#C5A877" transform="scale(0.0309302 0.030928)" d="M1726.12 3188.12C1727.77 3207.36 1731.88 3226.2 1732.9 3245.48C1734.64 3278.39 1741.52 3507.51 1732.44 3523.75L1729.09 3523.61C1727.12 3520.45 1725.12 3517.39 1723.48 3514.05L1724.13 3512.9L1728.16 3513.29C1731.43 3499.99 1728.22 3481.47 1728.04 3467.47C1727.57 3429.24 1728.69 3389.96 1724.75 3351.95C1722.46 3329.88 1716.52 3308.05 1713.01 3286.12C1709.66 3265.22 1709.29 3244.19 1708.88 3223.09C1711.17 3227.07 1712.69 3229.61 1716.51 3232.25L1719.81 3230.5C1724.85 3218.08 1723.92 3201.56 1726.12 3188.12Z"/>
	<path fill="#EAE2C9" transform="scale(0.0309302 0.030928)" d="M140.559 1029.72L145.134 1027.82C154.309 1032.2 184.583 1088.59 192.226 1101.43C213.25 1136.76 236.18 1171.11 257.179 1206.59Q289.206 1261.4 322.891 1315.21C331.553 1329.02 340.342 1345.75 351.132 1357.95C402.547 1431.33 443.501 1512.82 491.079 1588.8C529.294 1649.83 578.895 1711.84 612.587 1774.93C612.143 1797.25 668.348 1880.76 681.537 1904.13C693.05 1924.52 700.94 1946.6 712.304 1967.09C730.003 1998.99 750.276 2029.24 768.567 2060.75C808.837 2130.13 847.406 2200.06 892.266 2266.75L890.151 2267.17C865.575 2242.93 823.667 2171.22 804.96 2138.48C805.996 2157.43 856.384 2230.9 854.043 2235.28C850.713 2234.22 848.551 2232.94 845.605 2231.13C811.948 2172.13 773.801 2114.94 738.521 2056.77C725.212 2034.82 709.607 2012.44 698.91 1989.14C674.874 1955.03 654.001 1917.24 632.043 1881.7C591.769 1816.5 551.002 1751.38 511.784 1685.56C493.002 1657.64 476.113 1627.97 458.386 1599.34L331.877 1393.15Q254.611 1270.19 180.031 1145.6C165.304 1120.63 142.103 1090.02 134.866 1061.86C132.059 1050.94 133.313 1041.33 138.761 1031.57L138.972 1030.33L140.559 1029.72Z"/>
	<path fill="#E9D39A" transform="scale(0.0309302 0.030928)" d="M140.559 1029.72L145.134 1027.82C154.309 1032.2 184.583 1088.59 192.226 1101.43C213.25 1136.76 236.18 1171.11 257.179 1206.59Q289.206 1261.4 322.891 1315.21C331.553 1329.02 340.342 1345.75 351.132 1357.95C402.547 1431.33 443.501 1512.82 491.079 1588.8C529.294 1649.83 578.895 1711.84 612.587 1774.93C612.143 1797.25 668.348 1880.76 681.537 1904.13C693.05 1924.52 700.94 1946.6 712.304 1967.09C730.003 1998.99 750.276 2029.24 768.567 2060.75C808.837 2130.13 847.406 2200.06 892.266 2266.75L890.151 2267.17C865.575 2242.93 823.667 2171.22 804.96 2138.48C803.956 2122.33 696.236 1945.89 682.516 1930.41C667.123 1903.68 649.045 1878.44 633.414 1851.81C585.857 1770.79 539.271 1687.39 485.407 1610.3C469.632 1584.36 453.156 1558.32 438.756 1531.61C423.25 1502.84 409.786 1473.42 393.144 1445.21C360.775 1390.32 324.306 1338.27 290.919 1284.08C253.184 1222.83 218.184 1159.75 180.595 1098.3C173.557 1086.8 147.181 1035.57 140.559 1029.72Z"/>
	<defs>
		<linearGradient id="gradient_0" gradientUnits="userSpaceOnUse" x1="966.7688" y1="992.0274" x2="836.62946" y2="315.26056">
			<stop offset="0" stop-color="#E0C59D"/>
			<stop offset="1" stop-color="#F4E4CD"/>
		</linearGradient>
	</defs>
	<path fill="url(#gradient_0)" transform="scale(0.0309302 0.030928)" d="M175.063 1000.56L177.216 998.024C196.613 975.601 221.413 955.485 243.423 935.565L356.688 832.45L769.692 456.568C790.365 437.888 952.956 288.977 958.627 287.081C978.437 280.456 1028.6 286.986 1052.04 287.121L1289.12 287.231C1332.48 287.238 1377.53 290.008 1420.62 286.391L1422.99 286.171L1689.36 286.569C1734.68 286.695 1781.59 284.295 1826.64 287.909C1825.96 287.992 1825.29 288.082 1824.61 288.157C1778.12 293.35 1553.26 286.371 1534.35 293.707C1558.9 295.001 1588.02 290.478 1611.6 295.365C1609.42 298.206 1607.87 299.21 1604.9 301.109C1609.04 302.842 1612.9 303.724 1617.27 304.651L1618.71 307.417C1612.45 310.911 1608.17 314.945 1602.56 318.797C1601.01 319.859 1597.75 321.068 1595.93 321.796C1596.17 321.142 1596.41 320.492 1596.64 319.834C1597.75 316.591 1597.37 317.768 1598.14 313.813C1593.97 312.336 1591.19 313.086 1586.93 313.905C1586.49 314.992 1586.29 316.21 1585.61 317.167C1584.94 318.106 1583.86 318.678 1582.99 319.434L1572.56 316.217C1569.65 317.804 1568.38 318.984 1566.07 321.449C1560.84 327.023 1554.16 328.628 1546.95 330.431C1542.89 327.843 1544.69 325.625 1539.79 323.279C1536.51 325.569 1536.44 324.599 1535.86 328.118C1534.31 337.481 1539.94 348.925 1543.42 357.527C1537.82 361.016 1530.57 353.866 1528.33 361.219C1527.54 363.826 1527.65 367.409 1527.47 370.154C1519.25 375.574 1504.76 374.334 1494.92 376.397C1524.66 381.078 1715.86 371.088 1729.4 382.856C1692.29 384.62 1654.69 383.603 1617.54 383.572L1422.92 383.302C1259.38 383.197 1095.36 385.007 931.886 381.329C902.571 439.778 788.549 534.413 736.233 582.731C682.875 632.01 631.371 683.827 577.295 732.274C547.535 758.937 517.501 785.845 486.937 811.583C470.634 825.312 453.137 837.646 437.226 851.826C424.267 862.943 410.608 873.817 399.911 887.197C435.265 889.12 614.849 878.05 627.652 885.227C610.924 902.951 593.119 920.484 578.546 940.038C576.802 941.719 575.44 943.911 573.315 945.081C556.2 954.501 465.171 942.448 440.488 953.368C448.234 958.579 497.168 957.7 510.797 960.477C529.637 964.317 591.456 962.473 605.072 974.774L609.783 969.414C616.68 969.924 616.17 974.799 623.81 975.2C630.488 975.551 637.504 973.433 644.261 973.656C660.768 974.2 677.37 973.033 693.791 973.747C706.253 974.289 718.565 976.594 730.995 977.253C753.366 978.439 771.024 976.637 793.161 982.508C797.406 980.474 801.182 978.399 805.05 975.722C813.143 979.613 831.323 990.886 839.864 990.214C843.828 987.062 846.023 983.862 851.504 984.577C861.244 985.845 871.494 990.415 881.307 992.398C898.273 995.826 928.043 997.724 946.227 999.178C971.082 1001.17 996.043 998.448 1020.87 1000.66C955.802 1002.89 890.389 1002.63 825.287 1002.11C790.161 1001.83 753.276 998.974 718.423 1002.14C634.631 1000.58 550.797 1002.49 467.002 1002.73Q377.105 1002.5 287.228 1000.56C250.131 1000 211.92 1002.92 175.063 1000.56Z"/>
	<defs>
		<linearGradient id="gradient_1" gradientUnits="userSpaceOnUse" x1="1000.0472" y1="368.66299" x2="1155.415" y2="716.99628">
			<stop offset="0" stop-color="#A06C26"/>
			<stop offset="1" stop-color="#CDA256"/>
		</linearGradient>
	</defs>
	<path fill="url(#gradient_1)" transform="scale(0.0309302 0.030928)" d="M931.886 381.329C1095.36 385.007 1259.38 383.197 1422.92 383.302L1617.54 383.572C1654.69 383.603 1692.29 384.62 1729.4 382.856C1735.36 383.287 1739.93 382.681 1744.93 386.056C1745.7 391.971 1744.92 397.337 1744.16 403.193L1743.34 405.94C1742.23 421.993 1734.05 427.472 1725.13 439.527C1724.44 449.998 1724.03 460.304 1724.1 470.807C1718.08 468.575 1553.48 474.985 1534.89 476.348Q1449.74 482.518 1364.39 484.554L1161.11 488.195C1138.84 488.495 1081.99 484.827 1064.07 490.698C1044.41 497.137 785.527 741.265 749.089 774.594C727.579 794.269 705.054 812.844 683.306 832.259C667.562 846.314 644.493 875.371 627.652 885.227C614.849 878.05 435.265 889.12 399.911 887.197C410.608 873.817 424.267 862.943 437.226 851.826C453.137 837.646 470.634 825.312 486.937 811.583C517.501 785.845 547.535 758.937 577.295 732.274C631.371 683.827 682.875 632.01 736.233 582.731C788.549 534.413 902.571 439.778 931.886 381.329Z"/>
	<path fill="#946F3A" transform="scale(0.0309302 0.030928)" d="M863.967 511.91C877.869 499.55 926.153 448.862 938.193 443.211C946.099 439.5 975.587 438.77 985.772 437.634C1003.28 435.68 1023.79 431.895 1041.24 433.01C1063.99 434.465 1086.72 447.067 1109.73 450.503C1124.81 452.754 1150.87 449.528 1163.61 454.323C1143.74 458.411 1109.34 454.41 1088.03 454.619C1048.38 455.008 995.362 449.218 957.182 458.048C928.599 464.659 846.453 543.435 821.299 566.554Q815.755 572.473 810.056 578.243C766.878 621.818 720.679 662.337 676.255 704.632C627.535 751.016 579.987 798.364 529.681 843.093C518.084 853.404 504.174 868.684 490.38 875.678C472.221 884.885 445.839 882.737 425.787 882.835C451.23 857.086 480.251 838.716 508.879 816.865C550.864 784.819 593.153 751.292 633.554 717.328C712.25 651.172 783.057 575.343 863.967 511.91Z"/>
	<path fill="#B09264" transform="scale(0.0309302 0.030928)" d="M931.886 381.329C1095.36 385.007 1259.38 383.197 1422.92 383.302L1617.54 383.572C1654.69 383.603 1692.29 384.62 1729.4 382.856C1735.36 383.287 1739.93 382.681 1744.93 386.056C1745.7 391.971 1744.92 397.337 1744.16 403.193L1743.34 405.94C1743.04 406.373 1742.71 406.787 1742.44 407.238C1740.6 410.318 1739.71 413.793 1738.62 417.181L1736.45 417.637C1731.82 408.726 1732.09 403.859 1734.62 394.256C1735.21 392.023 1735.21 392.961 1734.91 391.204L1732.18 391.867L1731.91 390.666C1686.81 389.383 1641.46 390.617 1596.33 390.727C1611.47 392.384 1633.47 388.384 1647.33 393.207L1648.81 392.702C1634.59 400.594 1560.95 390.327 1545.83 399.645L1542.33 396.598C1535.82 397.232 1524.88 399.822 1518.92 397.688C1507.83 393.722 1496.47 393.517 1484.84 393.396C1480.81 393.355 1478.26 392.738 1474.51 391.395L1483.06 390.799C1473.56 390.657 1440.92 387.245 1434.74 391.293L1434.55 395.144L1436.87 396.984C1431.86 399.528 1428.42 401.269 1422.54 400.086C1417.22 399.015 1411.32 395.722 1406.12 393.922L1401.61 399.104C1385.94 400.209 1365.8 402.809 1350.39 400.184C1342.55 398.848 1335.09 393.413 1327.42 392.317C1314.87 390.521 1321.56 406.281 1295.95 392.588C1176.96 394.129 1057.89 383.179 938.707 385.396C938.032 399.981 937.481 414.996 930.94 428.364C920.346 450.016 854.123 509.435 833.503 528.176C781.521 575.421 729.622 623.465 676.541 669.431C643.925 697.675 610.309 724.43 577.246 752.087C538.946 784.124 500.448 822.448 455.927 845.654C449.85 848.822 443.925 850.559 437.226 851.826C453.137 837.646 470.634 825.312 486.937 811.583C517.501 785.845 547.535 758.937 577.295 732.274C631.371 683.827 682.875 632.01 736.233 582.731C788.549 534.413 902.571 439.778 931.886 381.329Z"/>
	<defs>
		<linearGradient id="gradient_2" gradientUnits="userSpaceOnUse" x1="1314.0094" y1="2789.6453" x2="1220.3488" y2="2847.1907">
			<stop offset="0" stop-color="#E9C362"/>
			<stop offset="1" stop-color="#D8BF9D"/>
		</linearGradient>
	</defs>
	<path fill="url(#gradient_2)" transform="scale(0.0309302 0.030928)" d="M612.587 1774.93C628.191 1800.2 641.663 1826.68 657.267 1851.93C695.455 1913.72 735.649 1974.34 774.339 2035.83C794.435 2067.77 812.669 2100.77 832.546 2132.83C853.333 2166.35 875.759 2198.84 897.332 2231.86C910.543 2252.08 935.885 2300.45 951.441 2315.37C949.777 2298.29 904.912 2241.08 895.27 2219.92C896.115 2220.02 896.957 2220.14 897.803 2220.23C901.691 2220.64 900.189 2220.54 904.466 2220.35C907.71 2216.83 908.672 2214.18 910.018 2209.63Q926.756 2237.02 944.555 2263.74L945.366 2263.32C938.125 2244.87 926.129 2229.29 917.468 2211.57C911.138 2198.63 907.245 2184 900.39 2171.53C895.113 2161.92 875.234 2143.59 878.998 2132.22L877.264 2134.58L877.008 2129.54L876.327 2131.08L877.423 2129.41C903.847 2143.74 919.914 2194.29 930.317 2198.82C937.299 2217.87 956.779 2236.81 968.78 2253.74Q1004.4 2304.48 1038.69 2356.12Q1232.94 2649.27 1415.93 2949.48C1452.23 3007.92 1492.41 3064.32 1527.45 3123.44C1536.12 3138.07 1577.54 3207.8 1576.98 3219.35C1576.82 3222.65 1577.23 3224.75 1578.12 3227.87C1582.61 3226.71 1580.54 3227.61 1584.37 3225.24C1587.65 3229.44 1590.76 3233.7 1593.84 3238.06C1592.02 3243.25 1592.37 3245.71 1587.34 3248.57C1580.78 3245.78 1578.01 3243.44 1570.9 3244.93C1568.56 3247.65 1565.67 3249.15 1566.23 3252.95C1569.84 3277.58 1630.73 3370.57 1646.57 3389.22C1665.69 3420.03 1687.4 3449.57 1705.65 3480.81L1723.14 3510.09L1724.13 3512.9L1723.48 3514.05L1719.39 3513.34L1723.33 3526.45L1721.29 3528.71C1717.73 3527.53 1714.38 3526.32 1710.71 3525.57C1713.94 3538.5 1720.02 3551.15 1727.09 3562.44C1739.87 3583.29 1749.49 3605.33 1761.06 3626.73C1766.34 3605.43 1766.72 3584.34 1766.94 3562.49C1768.97 3617.47 1765.42 3673.32 1768.22 3727.42C1722.88 3668.66 1687.19 3601.49 1648.07 3538.63Q1523.32 3337.98 1401.74 3135.42L845.605 2231.13C848.551 2232.94 850.713 2234.22 854.043 2235.28C856.384 2230.9 805.996 2157.43 804.96 2138.48C823.667 2171.22 865.575 2242.93 890.151 2267.17L892.266 2266.75C847.406 2200.06 808.837 2130.13 768.567 2060.75C750.276 2029.24 730.003 1998.99 712.304 1967.09C700.94 1946.6 693.05 1924.52 681.537 1904.13C668.348 1880.76 612.143 1797.25 612.587 1774.93Z"/>
	<defs>
		<linearGradient id="gradient_3" gradientUnits="userSpaceOnUse" x1="3567.2437" y1="2084.0371" x2="3830.2544" y2="2165.5605">
			<stop offset="0" stop-color="#866436"/>
			<stop offset="1" stop-color="#615441"/>
		</linearGradient>
	</defs>
	<path fill="url(#gradient_3)" transform="scale(0.0309302 0.030928)" d="M3254.21 574.931C3254.44 571.551 3253.71 571.505 3256.41 569.122C3260.33 570.499 3269.1 574.708 3272.77 573.684C3268.41 568.204 3260.28 560.394 3259.2 553.492C3280.97 555.066 3325.2 606.5 3355.72 611.463C3410.08 653.818 3460.8 703.728 3507.26 754.443C3542.45 792.848 3576.97 831.724 3608.16 873.443C3691.22 984.548 3759.88 1116.9 3803.67 1248.38C3814.71 1281.51 3830.98 1319.01 3835.57 1353.44C3835.66 1354.1 3835.69 1354.77 3835.75 1355.44C3859.55 1429.17 3870.33 1530.49 3874.03 1607.91C3879.24 1642.06 3877.65 1679.29 3877.87 1713.81C3878.64 1835.9 3874.38 2006.29 3845.84 2125.25C3814.78 2322.75 3737.79 2532.5 3640.65 2707.16C3616.67 2751.03 3590.38 2799.24 3559.05 2838.29C3556.49 2842.46 3554.1 2846.74 3551.06 2850.58C3547.44 2849.95 3546.35 2849.42 3543.34 2847.56L3542.9 2844.65C3544.12 2843.01 3546.18 2840.41 3546.96 2838.59C3548.87 2834.08 3548.48 2831.83 3546.73 2827.72L3543.17 2826.96L3540.69 2834.51C3536.06 2836.08 3531.46 2837.7 3526.7 2838.9C3525.88 2839.11 3525.04 2839.28 3524.21 2839.47L3525.42 2837.33C3542.57 2799.95 3565.34 2765.05 3583.42 2728.09C3626.2 2640.62 3655.42 2560.3 3682.56 2466.98C3690.39 2440.1 3703.14 2408.31 3704.51 2380.42L3701.47 2379.52C3712.32 2328.19 3726.81 2277.04 3734.56 2225.09C3743.19 2167.25 3743.35 2107.86 3748.6 2049.61C3755.27 1975.76 3766.43 1902.37 3770.8 1828.27C3773.81 1777.06 3772.24 1725.88 3769.5 1674.7C3767.83 1643.52 3767.12 1609.58 3759.71 1579.18C3757 1556.53 3754.48 1533.88 3750.52 1511.4C3748.77 1479.84 3742.9 1446.96 3737.09 1415.83C3743.4 1426.06 3745.7 1437.09 3748.53 1448.62C3750.7 1439.68 3770.65 1445.43 3778.61 1436.92C3796.73 1417.53 3773 1396.82 3773.51 1377.68C3773.66 1371.66 3773.03 1367.41 3771.18 1361.71C3770.2 1362.22 3769.36 1365.48 3768.95 1366.54L3766.76 1365.44C3767.48 1328.56 3752.2 1288.66 3741.14 1253.77C3736.71 1239.82 3735.93 1224.98 3731.25 1211.15C3723.28 1187.54 3712.74 1164.2 3703.13 1141.17C3685.13 1098.05 3666.01 1054.5 3643.37 1013.57C3603.78 941.974 3552.18 873.07 3500.86 809.262C3471.6 772.87 3422.31 736.122 3397.3 699.453C3396.97 698.982 3396.67 698.5 3396.35 698.023Q3352.4 656.54 3307.73 615.819C3289.49 605.987 3270.73 587.878 3254.21 574.931Z"/>
	<path fill="#674829" transform="scale(0.0309302 0.030928)" d="M3525.42 2837.33C3526.01 2836.92 3526.62 2836.52 3527.21 2836.1C3540.16 2826.94 3548.7 2811.69 3563.34 2805.52C3565.29 2809.75 3563.41 2814.05 3561.87 2818.39C3559.38 2825.44 3554.78 2829.65 3558.15 2836.94C3558.38 2837.43 3558.75 2837.84 3559.05 2838.29C3556.49 2842.46 3554.1 2846.74 3551.06 2850.58C3547.44 2849.95 3546.35 2849.42 3543.34 2847.56L3542.9 2844.65C3544.12 2843.01 3546.18 2840.41 3546.96 2838.59C3548.87 2834.08 3548.48 2831.83 3546.73 2827.72L3543.17 2826.96L3540.69 2834.51C3536.06 2836.08 3531.46 2837.7 3526.7 2838.9C3525.88 2839.11 3525.04 2839.28 3524.21 2839.47L3525.42 2837.33Z"/>
	<path fill="#B09264" transform="scale(0.0309302 0.030928)" d="M3396.35 698.023C3410.32 707.782 3420.08 722.364 3433.73 732.126C3512.58 814.978 3597.02 919.382 3652.4 1019.31C3673.88 1058.07 3691.91 1099.57 3708.87 1140.44L3709.51 1142.47C3716.88 1165.33 3727.42 1187.28 3735.65 1209.88C3763.86 1287.37 3792.29 1370.23 3802.17 1452.13C3803.27 1461.2 3807.13 1475.35 3804.41 1484.05C3795.68 1475.27 3795.68 1446.71 3795.67 1433.97L3794.5 1434.52C3791.81 1444.36 3787.97 1466.98 3778.86 1472.73C3771.14 1477.6 3758.42 1475.61 3755.82 1486.5C3753.98 1494.2 3762.43 1530.79 3763.21 1542.79C3767.61 1610.38 3773.74 1677.69 3774.99 1745.47C3776.67 1837.05 3764.13 1927.65 3755.51 2018.61C3749.67 2080.32 3747.8 2142.82 3740.52 2204.3C3733.57 2262.94 3720.29 2323.48 3704.51 2380.42L3701.47 2379.52C3712.32 2328.19 3726.81 2277.04 3734.56 2225.09C3743.19 2167.25 3743.35 2107.86 3748.6 2049.61C3755.27 1975.76 3766.43 1902.37 3770.8 1828.27C3773.81 1777.06 3772.24 1725.88 3769.5 1674.7C3767.83 1643.52 3767.12 1609.58 3759.71 1579.18C3757 1556.53 3754.48 1533.88 3750.52 1511.4C3748.77 1479.84 3742.9 1446.96 3737.09 1415.83C3743.4 1426.06 3745.7 1437.09 3748.53 1448.62C3750.7 1439.68 3770.65 1445.43 3778.61 1436.92C3796.73 1417.53 3773 1396.82 3773.51 1377.68C3773.66 1371.66 3773.03 1367.41 3771.18 1361.71C3770.2 1362.22 3769.36 1365.48 3768.95 1366.54L3766.76 1365.44C3767.48 1328.56 3752.2 1288.66 3741.14 1253.77C3736.71 1239.82 3735.93 1224.98 3731.25 1211.15C3723.28 1187.54 3712.74 1164.2 3703.13 1141.17C3685.13 1098.05 3666.01 1054.5 3643.37 1013.57C3603.78 941.974 3552.18 873.07 3500.86 809.262C3471.6 772.87 3422.31 736.122 3397.3 699.453C3396.97 698.982 3396.67 698.5 3396.35 698.023Z"/>
	<defs>
		<linearGradient id="gradient_4" gradientUnits="userSpaceOnUse" x1="3814.7817" y1="1642.3323" x2="3871.1843" y2="1649.7101">
			<stop offset="0" stop-color="#937C53"/>
			<stop offset="1" stop-color="#AD9D70"/>
		</linearGradient>
	</defs>
	<path fill="url(#gradient_4)" transform="scale(0.0309302 0.030928)" d="M3802.96 1328.17C3811.76 1350.38 3817.34 1375.75 3835.09 1393.21C3837.3 1391.91 3837.44 1392.37 3838.13 1389.75C3839.77 1383.52 3834.66 1365.78 3835.75 1355.44C3859.55 1429.17 3870.33 1530.49 3874.03 1607.91C3873.95 1608.66 3873.87 1609.4 3873.8 1610.15C3870.7 1643.22 3874.5 1677.75 3873.77 1711.12C3873.53 1721.93 3869.95 1731.07 3869.47 1741.46L3868.63 1740.11L3868.94 1744.49C3864.9 1726.45 3866.66 1707 3863.26 1688.66C3859.79 1706.96 3860.42 1726.08 3859.82 1744.67C3858.72 1778.91 3857.35 1815.27 3850.23 1848.85L3849.93 1828.59L3842.41 1823.55C3843.77 1833.68 3842.09 1850.38 3838.43 1859.89C3829.66 1760.81 3841.05 1660.78 3838.21 1561.58C3837.51 1537.03 3833.18 1513.13 3829.99 1488.84C3826.5 1462.34 3824.16 1435.61 3819.59 1409.28C3815.39 1382.43 3804.75 1355.17 3802.96 1328.17Z"/>
	<path fill="#674829" transform="scale(0.0309302 0.030928)" d="M3307.73 615.819C3300.28 606.606 3292.22 598.05 3286.45 587.648L3287.81 585.749C3291.2 587.778 3292.47 589.478 3296.52 589.165C3318.21 602.587 3353.94 630.225 3370.67 649.192L3373.32 652.178C3386.2 666.544 3401.66 679.4 3415.6 692.862C3443.96 720.247 3472.58 748.66 3498.89 777.994Q3509.85 790.275 3520.53 802.802Q3531.21 815.328 3541.59 828.095Q3551.98 840.861 3562.07 853.86Q3572.16 866.859 3581.95 880.085Q3591.73 893.31 3601.22 906.754Q3610.7 920.198 3619.86 933.854Q3629.03 947.511 3637.89 961.372Q3646.74 975.233 3655.27 989.292Q3663.8 1003.35 3672 1017.6Q3680.21 1031.85 3688.08 1046.28Q3695.96 1060.71 3703.5 1075.32Q3711.04 1089.93 3718.24 1104.7Q3725.44 1119.48 3732.3 1134.41Q3739.17 1149.35 3745.68 1164.43Q3752.19 1179.52 3758.36 1194.75Q3764.53 1209.98 3770.34 1225.35C3782.82 1258.97 3792.06 1294.01 3802.96 1328.17C3804.75 1355.17 3815.39 1382.43 3819.59 1409.28C3819.48 1417.16 3822.93 1435.25 3818.42 1441.18L3817.7 1426.63L3815.16 1427.38C3815.74 1432.18 3816.36 1434.71 3814.61 1439.4C3808.3 1436.52 3799.76 1392.47 3797.65 1384.12C3785.33 1335.53 3733.56 1177.34 3708.87 1140.44C3691.91 1099.57 3673.88 1058.07 3652.4 1019.31C3597.02 919.382 3512.58 814.978 3433.73 732.126C3420.08 722.364 3410.32 707.782 3396.35 698.023Q3352.4 656.54 3307.73 615.819Z"/>
	<path fill="#946F3A" transform="scale(0.0309302 0.030928)" d="M3307.73 615.819C3300.28 606.606 3292.22 598.05 3286.45 587.648L3287.81 585.749C3291.2 587.778 3292.47 589.478 3296.52 589.165C3318.21 602.587 3353.94 630.225 3370.67 649.192C3366.89 647.24 3363.87 644.775 3359.56 645.04C3376.67 661.723 3394.39 677.892 3409.37 696.523L3389.62 682.322L3386.87 683.4C3384.78 680.899 3385.07 682.16 3385.01 679.991L3387.02 680.901L3384.62 680.181C3399.21 698.886 3420.02 712.773 3433.73 732.126C3420.08 722.364 3410.32 707.782 3396.35 698.023Q3352.4 656.54 3307.73 615.819Z"/>
	<path fill="#776548" transform="scale(0.0309302 0.030928)" d="M3874.03 1607.91C3879.24 1642.06 3877.65 1679.29 3877.87 1713.81C3878.64 1835.9 3874.38 2006.29 3845.84 2125.25C3814.78 2322.75 3737.79 2532.5 3640.65 2707.16C3640.12 2706.77 3639.52 2706.45 3639.07 2705.97C3635.97 2702.68 3634.8 2700.43 3636.37 2695.97C3638.88 2688.82 3645.28 2680.6 3648.82 2673.59C3660.09 2651.33 3708.86 2558.01 3708.17 2540.2C3707.16 2514.46 3720.32 2509.57 3724.9 2488.32C3728.55 2471.34 3739.31 2453.46 3745.08 2436.57Q3767.81 2368.21 3788.24 2299.13C3781.85 2310.27 3780.24 2322.82 3775.1 2334.45L3772.9 2334.21L3772.34 2330C3773.66 2327.89 3775.26 2325.59 3776.1 2323.21C3780.49 2310.71 3781.63 2293.96 3784.79 2280.73C3792.82 2247.05 3799.9 2213.17 3807.49 2179.52C3809.89 2168.89 3813.59 2158.92 3815.48 2148.1L3815.86 2145.83C3816.96 2180.44 3805.96 2217.93 3798.95 2251.79L3799.3 2251.46L3799.45 2257.25L3801.27 2255.02C3802.05 2223.23 3815.89 2182.42 3822.22 2150.01C3828.13 2119.81 3831.22 2087.18 3838.66 2057.6C3838.98 2056.32 3839.33 2055.04 3839.67 2053.76C3836.22 2036.54 3846.55 2018 3845.1 2000.85C3844.58 1994.76 3841.17 1993.8 3836.66 1990.6C3834.17 1981.78 3842.56 1979.42 3842.5 1967.49C3842.3 1928.45 3848.54 1888.04 3850.23 1848.85C3857.35 1815.27 3858.72 1778.91 3859.82 1744.67C3860.42 1726.08 3859.79 1706.96 3863.26 1688.66C3866.66 1707 3864.9 1726.45 3868.94 1744.49L3868.63 1740.11L3869.47 1741.46C3869.95 1731.07 3873.53 1721.93 3873.77 1711.12C3874.5 1677.75 3870.7 1643.22 3873.8 1610.15C3873.87 1609.4 3873.95 1608.66 3874.03 1607.91Z"/>
	<path fill="#B09264" transform="scale(0.0309302 0.030928)" d="M3254.21 574.931C3254.44 571.551 3253.71 571.505 3256.41 569.122C3260.33 570.499 3269.1 574.708 3272.77 573.684C3268.41 568.204 3260.28 560.394 3259.2 553.492C3280.97 555.066 3325.2 606.5 3355.72 611.463C3410.08 653.818 3460.8 703.728 3507.26 754.443C3542.45 792.848 3576.97 831.724 3608.16 873.443C3691.22 984.548 3759.88 1116.9 3803.67 1248.38C3814.71 1281.51 3830.98 1319.01 3835.57 1353.44C3835.66 1354.1 3835.69 1354.77 3835.75 1355.44C3834.66 1365.78 3839.77 1383.52 3838.13 1389.75C3837.44 1392.37 3837.3 1391.91 3835.09 1393.21C3817.34 1375.75 3811.76 1350.38 3802.96 1328.17C3792.06 1294.01 3782.82 1258.97 3770.34 1225.35Q3764.53 1209.98 3758.36 1194.75Q3752.19 1179.52 3745.68 1164.43Q3739.17 1149.35 3732.3 1134.41Q3725.44 1119.48 3718.24 1104.7Q3711.04 1089.93 3703.5 1075.32Q3695.96 1060.71 3688.08 1046.28Q3680.21 1031.85 3672 1017.6Q3663.8 1003.35 3655.27 989.292Q3646.74 975.233 3637.89 961.372Q3629.03 947.511 3619.86 933.854Q3610.7 920.198 3601.22 906.754Q3591.73 893.31 3581.95 880.085Q3572.16 866.859 3562.07 853.86Q3551.98 840.861 3541.59 828.095Q3531.21 815.328 3520.53 802.802Q3509.85 790.275 3498.89 777.994C3472.58 748.66 3443.96 720.247 3415.6 692.862C3401.66 679.4 3386.2 666.544 3373.32 652.178L3370.67 649.192C3353.94 630.225 3318.21 602.587 3296.52 589.165C3292.47 589.478 3291.2 587.778 3287.81 585.749L3286.45 587.648C3292.22 598.05 3300.28 606.606 3307.73 615.819C3289.49 605.987 3270.73 587.878 3254.21 574.931Z"/>
	<defs>
		<linearGradient id="gradient_5" gradientUnits="userSpaceOnUse" x1="3497.4409" y1="1688.1941" x2="1932.7577" y2="-30.914289">
			<stop offset="0" stop-color="#CEB685"/>
			<stop offset="1" stop-color="#F3E0C5"/>
		</linearGradient>
	</defs>
	<path fill="url(#gradient_5)" transform="scale(0.0309302 0.030928)" d="M1826.64 287.909C1850.75 286.158 1875.47 287.349 1899.66 287.536Q1953.07 287.84 2006.48 287.597L2367.37 285.772L2615.6 281.988C2658.86 281.576 2704.08 278.373 2746.97 284.542C2802.11 292.473 2904.41 333.787 2954.55 360.469C2988.98 375.191 3022.05 393.901 3054.87 411.858C3158.97 468.809 3265.96 533.578 3355.72 611.463C3325.2 606.5 3280.97 555.066 3259.2 553.492C3260.28 560.394 3268.41 568.204 3272.77 573.684C3269.1 574.708 3260.33 570.499 3256.41 569.122C3253.71 571.505 3254.44 571.551 3254.21 574.931C3270.73 587.878 3289.49 605.987 3307.73 615.819Q3352.4 656.54 3396.35 698.023C3396.67 698.5 3396.97 698.982 3397.3 699.453C3422.31 736.122 3471.6 772.87 3500.86 809.262C3552.18 873.07 3603.78 941.974 3643.37 1013.57C3666.01 1054.5 3685.13 1098.05 3703.13 1141.17C3712.74 1164.2 3723.28 1187.54 3731.25 1211.15C3735.93 1224.98 3736.71 1239.82 3741.14 1253.77C3752.2 1288.66 3767.48 1328.56 3766.76 1365.44L3768.95 1366.54C3769.36 1365.48 3770.2 1362.22 3771.18 1361.71C3773.03 1367.41 3773.66 1371.66 3773.51 1377.68C3773 1396.82 3796.73 1417.53 3778.61 1436.92C3770.65 1445.43 3750.7 1439.68 3748.53 1448.62C3745.7 1437.09 3743.4 1426.06 3737.09 1415.83C3742.9 1446.96 3748.77 1479.84 3750.52 1511.4C3735.5 1471.61 3741.17 1412.31 3715.16 1377.07C3710.17 1364.63 3704.57 1337.02 3692.68 1330.69L3690.73 1331.1L3687.64 1337.07C3687 1337.21 3686.35 1337.33 3685.71 1337.48C3682.76 1338.17 3683.87 1337.85 3680.85 1339.25C3677.96 1360.17 3678.14 1380.93 3682.28 1401.65C3677.72 1397.68 3675.65 1395.12 3673.23 1389.53C3671.86 1386.37 3670.98 1383.94 3668.78 1381.21C3666.76 1378.69 3664.46 1379.49 3661.44 1379.28C3670.05 1354.07 3666.42 1325.72 3662.45 1299.81C3658.32 1272.82 3654.89 1242.08 3643.96 1216.96C3611.36 1142.01 3515.2 1044.72 3457.96 982.982Q3423.25 944.868 3389.2 906.176C3358.41 871.739 3336.01 830.818 3305.48 796.754C3291.69 781.367 3227.77 722.891 3223.36 712.28C3223 706.899 3223.33 703.531 3226.02 698.737C3229.28 692.925 3233.19 688.894 3239.68 686.927C3261.42 698.502 3296.48 729.06 3316.04 745.608C3315.7 744.894 3315.46 744.124 3315.03 743.467C3302.12 724.066 3274.97 706.488 3256.86 691.89C3130.99 590.442 2961.57 489.399 2803.38 448.377Q2757.85 435.021 2712 422.761C2689.14 406.226 2574.68 393.033 2541.12 389.602C2510.46 382.736 2474.68 384.41 2443.28 383.348Q2332.36 378.89 2221.36 379.8Q2090.15 380.459 1958.94 379.518C1926.12 379.206 1892.97 380.473 1860.21 378.671C1834.2 377.24 1809.05 370.752 1783.28 368.837C1781.87 467.52 1777.87 565.824 1778.94 664.623C1779.92 755.184 1786.59 847.772 1781.02 938.065Q1755.38 938.618 1729.76 939.558L1729.92 932.446C1726.15 935.683 1724.62 937.315 1719.86 938.991C1718.6 906.792 1719.15 874.165 1720.17 841.951L1722.28 840.11C1724.82 808.769 1731.41 776.722 1731.36 745.403C1729.64 653.941 1734.63 561.709 1724.1 470.807C1724.03 460.304 1724.44 449.998 1725.13 439.527C1734.05 427.472 1742.23 421.993 1743.34 405.94L1744.16 403.193C1744.92 397.337 1745.7 391.971 1744.93 386.056C1739.93 382.681 1735.36 383.287 1729.4 382.856C1715.86 371.088 1524.66 381.078 1494.92 376.397C1504.76 374.334 1519.25 375.574 1527.47 370.154C1527.65 367.409 1527.54 363.826 1528.33 361.219C1530.57 353.866 1537.82 361.016 1543.42 357.527C1539.94 348.925 1534.31 337.481 1535.86 328.118C1536.44 324.599 1536.51 325.569 1539.79 323.279C1544.69 325.625 1542.89 327.843 1546.95 330.431C1554.16 328.628 1560.84 327.023 1566.07 321.449C1568.38 318.984 1569.65 317.804 1572.56 316.217L1582.99 319.434C1583.86 318.678 1584.94 318.106 1585.61 317.167C1586.29 316.21 1586.49 314.992 1586.93 313.905C1591.19 313.086 1593.97 312.336 1598.14 313.813C1597.37 317.768 1597.75 316.591 1596.64 319.834C1596.41 320.492 1596.17 321.142 1595.93 321.796C1597.75 321.068 1601.01 319.859 1602.56 318.797C1608.17 314.945 1612.45 310.911 1618.71 307.417L1617.27 304.651C1612.9 303.724 1609.04 302.842 1604.9 301.109C1607.87 299.21 1609.42 298.206 1611.6 295.365C1588.02 290.478 1558.9 295.001 1534.35 293.707C1553.26 286.371 1778.12 293.35 1824.61 288.157C1825.29 288.082 1825.96 287.992 1826.64 287.909Z"/>
	<path fill="#EAE2C9" transform="scale(0.0309302 0.030928)" d="M1684.88 293.197C1698.06 293.044 1718.35 290.556 1730.32 295.248L1726.76 296.864C1714.09 296.979 1699.52 294.258 1687.38 295.246C1686.61 295.308 1685.86 295.467 1685.11 295.577L1684.88 293.197Z"/>
	<defs>
		<linearGradient id="gradient_6" gradientUnits="userSpaceOnUse" x1="3162.5061" y1="538.82672" x2="3182.8208" y2="474.73697">
			<stop offset="0" stop-color="#B68F51"/>
			<stop offset="1" stop-color="#D2B691"/>
		</linearGradient>
	</defs>
	<path fill="url(#gradient_6)" transform="scale(0.0309302 0.030928)" d="M2626.76 298.169C2708.15 295.807 2802.95 328.516 2879.09 355.353C2899.48 362.539 2920.79 369.078 2940.31 378.295C2967.79 391.269 2994.77 405.549 3021.67 419.668C3035.75 427.058 3050.03 435.913 3064.85 441.662C3068.33 443.008 3068.18 443.709 3071.63 442.225L3067.62 443.123L3069.95 443.459L3070.4 440.473L3072.72 438.894L3070.91 441.008C3046.48 418.045 2943.07 381.753 2932.52 362.659C2938.8 359.821 2947.7 360.652 2954.55 360.469C2988.98 375.191 3022.05 393.901 3054.87 411.858C3158.97 468.809 3265.96 533.578 3355.72 611.463C3325.2 606.5 3280.97 555.066 3259.2 553.492C3260.28 560.394 3268.41 568.204 3272.77 573.684C3269.1 574.708 3260.33 570.499 3256.41 569.122C3253.71 571.505 3254.44 571.551 3254.21 574.931C3220.05 552.419 3188.92 524.966 3154.54 502.354C2981.75 388.691 2831.16 330.452 2626.76 298.169Z"/>
	<path fill="#FCFAF5" transform="scale(0.0309302 0.030928)" d="M1744.16 403.193C1746.02 397.354 1747.89 391.59 1750.15 385.894C1758.26 381.806 1764.25 379.793 1773.25 382.581C1776.8 388.092 1776.63 393.714 1776.7 400.137C1776.92 421.115 1775.45 442.16 1775.36 463.156L1775.82 667.011C1776.52 731.89 1777.35 796.559 1776.78 861.438C1776.57 885.332 1779.43 910.886 1774.5 934.315C1762.97 935.826 1742.68 941.177 1732.68 933.897C1732.08 930.857 1731.51 927.954 1731.23 924.865L1729.92 932.446C1726.15 935.683 1724.62 937.315 1719.86 938.991C1718.6 906.792 1719.15 874.165 1720.17 841.951L1722.28 840.11C1724.82 808.769 1731.41 776.722 1731.36 745.403C1729.64 653.941 1734.63 561.709 1724.1 470.807C1724.03 460.304 1724.44 449.998 1725.13 439.527C1734.05 427.472 1742.23 421.993 1743.34 405.94L1744.16 403.193Z"/>
	<path fill="#B09264" transform="scale(0.0309302 0.030928)" d="M1731.36 745.403C1732.95 791.268 1742.15 794.061 1751.21 832.819C1755.01 849.092 1755.2 865.793 1755.32 882.415C1748.52 887.338 1741.98 892.321 1735.67 897.851L1731.23 924.865L1729.92 932.446C1726.15 935.683 1724.62 937.315 1719.86 938.991C1718.6 906.792 1719.15 874.165 1720.17 841.951L1722.28 840.11C1724.82 808.769 1731.41 776.722 1731.36 745.403Z"/>
	<path fill="#958A7E" transform="scale(0.0309302 0.030928)" d="M627.652 885.227C644.493 875.371 667.562 846.314 683.306 832.259C705.054 812.844 727.579 794.269 749.089 774.594C785.527 741.265 1044.41 497.137 1064.07 490.698C1081.99 484.827 1138.84 488.495 1161.11 488.195L1364.39 484.554Q1449.74 482.518 1534.89 476.348C1553.48 474.985 1718.08 468.575 1724.1 470.807C1734.63 561.709 1729.64 653.941 1731.36 745.403C1731.41 776.722 1724.82 808.769 1722.28 840.11L1720.17 841.951C1718.49 800.848 1721.3 759.237 1721.58 718.074Q1721.9 608.024 1720.76 497.98L1065.37 500.798C1031.66 529.478 999.989 560.926 967.5 590.975L773.34 770.565C730.14 810.325 685.734 848.74 642.787 888.777C624.374 905.942 604.338 923.017 588.002 942.121L1423.58 944.106L1621.76 944.81C1647.14 945.045 1692.67 949.177 1715.87 944.849C1717.22 943.393 1718.82 941.926 1719.92 940.284C1720.64 943.505 1720.57 945.401 1719.88 948.622C1715.74 951.093 1711.76 951.492 1707.03 951.752C1688.16 952.789 1668.07 951.036 1649.04 951.061L1495.3 951.153L882.158 949.91C812.022 950.157 741.856 951.181 671.722 950.662C646.213 950.473 613.748 953.096 588.952 947.788C582.987 946.511 581.535 945.137 578.546 940.038C593.119 920.484 610.924 902.951 627.652 885.227Z"/>
	<path fill="#AAACA8" transform="scale(0.0309302 0.030928)" d="M1708.49 1744.4C1713.98 1722.98 1709.95 1695.75 1710.16 1673.53C1710.28 1661.69 1712.26 1650.03 1712.57 1638.24C1713.44 1605.72 1712.46 1572.94 1712.74 1540.38C1715.81 1551.64 1713.57 1599.67 1715.67 1617.52C1719.42 1585.24 1718.43 1551.08 1718.96 1518.51C1720.56 1420.59 1717.48 1322.32 1722.8 1224.52C1724.18 1199.14 1724.34 1173.05 1727.98 1147.89C1729.29 1199.35 1725.54 1251.35 1725.6 1302.92C1725.69 1374.71 1729.15 1450.83 1726.12 1522.07C1730.18 1565.33 1727.99 1610.87 1728.11 1654.35L1728.47 1902.16L1729.86 2664.72C1730.37 2727.05 1729.03 2789.4 1730.35 2851.72L1727.5 2855.4C1729.66 2919.61 1727.61 2984.4 1727.32 3048.66C1727.11 3094.56 1729.5 3142.4 1726.12 3188.12C1723.92 3201.56 1724.85 3218.08 1719.81 3230.5L1716.51 3232.25C1712.69 3229.61 1711.17 3227.07 1708.88 3223.09C1684.87 3188.55 1665.85 3148.55 1643.72 3112.48L1457.16 2807.3Q1208.43 2408.32 966.219 2005.4L713.427 1588.19C686.092 1543.29 659.826 1497.93 632.976 1452.78C622.358 1434.92 607.765 1417.94 599.439 1398.98C594.293 1387.26 586.413 1380.67 588.744 1367.23C621.776 1415.41 650.37 1467.62 680.705 1517.59L837.77 1774.3L1441.67 2761.02Q1528.33 2900.71 1612.07 3042.15L1675.3 3148.74C1684.87 3165.14 1693.26 3182.7 1703.73 3198.51L1707.89 2227.64L1708.2 1903.91C1708.24 1851.07 1706.16 1797.16 1708.49 1744.4Z"/>
	<path fill="#EAE2C9" transform="scale(0.0309302 0.030928)" d="M1726.12 1522.07C1730.18 1565.33 1727.99 1610.87 1728.11 1654.35L1728.47 1902.16L1729.86 2664.72C1730.37 2727.05 1729.03 2789.4 1730.35 2851.72L1727.5 2855.4C1723.96 2806.5 1726.68 2755.7 1726.75 2706.64L1724.96 2492.39C1724.73 2440.65 1720.69 2389.08 1720.3 2337.43Q1719.08 2131.65 1721.98 1925.89C1722.49 1898.66 1724.66 1871.5 1725.2 1844.3C1726.6 1773.45 1725.77 1702.33 1725.37 1631.47C1725.16 1595.48 1722.61 1557.79 1726.12 1522.07Z"/>
	<defs>
		<linearGradient id="gradient_7" gradientUnits="userSpaceOnUse" x1="1854.0468" y1="2059.8403" x2="1663.6198" y2="2074.9541">
			<stop offset="0" stop-color="white" stop-opacity="0.98823529"/>
			<stop offset="1" stop-color="#FAF7E6"/>
		</linearGradient>
	</defs>
	<path fill="url(#gradient_7)" transform="scale(0.0309302 0.030928)" d="M1755.4 1016.07C1761.5 1007.48 1767.4 998.029 1774.47 990.221C1776.96 997.224 1779.77 1004.56 1780.33 1012C1783.43 1052.48 1778.1 1096.07 1777.44 1136.94L1775.23 1402.81Q1774.38 1698.6 1776.57 1994.39C1776.95 2089.04 1774.61 2184.1 1776.65 2278.68C1775.62 2472.5 1777.88 2667.29 1770.09 2860.94C1764.1 2871.34 1767.42 2978.78 1766.37 3000.06C1765.42 3019.53 1761.69 3038.76 1760.75 3058.22C1759.75 3078.88 1763.83 3102.94 1758.42 3122.91L1757.03 3123C1757.1 3119.23 1757.22 3115.68 1757.61 3111.93C1758.92 3099.38 1758.2 3082.07 1754.32 3069.96C1751.4 3060.88 1756.25 3046.61 1755.54 3036.53C1753.41 3006.73 1748.93 2976.67 1746.12 2946.85C1744.3 2927.65 1744.41 2907.16 1741.33 2888.27C1737.1 2907.36 1740.49 2929.13 1741.67 2948.59C1738.3 2947.45 1739.78 2948.54 1737.87 2945.51C1735.97 2942.51 1736.91 2943.56 1734.33 2941.61C1736.3 2921.59 1733.93 2870.89 1730.35 2851.72C1729.03 2789.4 1730.37 2727.05 1729.86 2664.72L1728.47 1902.16L1728.11 1654.35C1727.99 1610.87 1730.18 1565.33 1726.12 1522.07C1729.15 1450.83 1725.69 1374.71 1725.6 1302.92C1725.54 1251.35 1729.29 1199.35 1727.98 1147.89C1729.95 1091.76 1725.46 1067.64 1755.4 1016.07Z"/>
	<defs>
		<linearGradient id="gradient_8" gradientUnits="userSpaceOnUse" x1="2307.3137" y1="2854.3262" x2="357.83395" y2="892.80493">
			<stop offset="0" stop-color="#A1702C"/>
			<stop offset="1" stop-color="#C0975D"/>
		</linearGradient>
	</defs>
	<path fill="url(#gradient_8)" transform="scale(0.0309302 0.030928)" d="M408.839 1017.16C436.956 1009.38 554.739 1014.58 592.481 1013.96L1261.11 1006.96Q1466.99 1006.42 1672.84 1009.51C1683.75 1009.56 1745.85 1007.04 1751.11 1008.86C1752.35 1009.29 1753.42 1010.12 1754.58 1010.75L1755.4 1016.07C1725.46 1067.64 1729.95 1091.76 1727.98 1147.89C1724.34 1173.05 1724.18 1199.14 1722.8 1224.52C1717.48 1322.32 1720.56 1420.59 1718.96 1518.51C1718.43 1551.08 1719.42 1585.24 1715.67 1617.52C1713.57 1599.67 1715.81 1551.64 1712.74 1540.38C1712.46 1572.94 1713.44 1605.72 1712.57 1638.24C1712.26 1650.03 1710.28 1661.69 1710.16 1673.53C1709.95 1695.75 1713.98 1722.98 1708.49 1744.4C1705.95 1687.26 1708.48 1629.02 1708.4 1571.76L1708.33 1192.08L485.279 1196.25C518.252 1254 557.383 1308.57 588.744 1367.23C586.413 1380.67 594.293 1387.26 599.439 1398.98C607.765 1417.94 622.358 1434.92 632.976 1452.78C659.826 1497.93 686.092 1543.29 713.427 1588.19L966.219 2005.4Q1208.43 2408.33 1457.16 2807.3L1643.72 3112.48C1665.85 3148.55 1684.87 3188.55 1708.88 3223.09C1709.29 3244.19 1709.66 3265.22 1713.01 3286.12C1716.52 3308.05 1722.46 3329.88 1724.75 3351.95C1728.69 3389.96 1727.57 3429.24 1728.04 3467.47C1728.22 3481.47 1731.43 3499.99 1728.16 3513.29L1724.13 3512.9L1723.14 3510.09L1705.65 3480.81C1687.4 3449.57 1665.69 3420.03 1646.57 3389.22C1630.73 3370.57 1569.84 3277.58 1566.23 3252.95C1565.67 3249.15 1568.56 3247.65 1570.9 3244.93C1578.01 3243.44 1580.78 3245.78 1587.34 3248.57C1592.37 3245.71 1592.02 3243.25 1593.84 3238.06C1590.76 3233.7 1587.65 3229.44 1584.37 3225.24C1580.54 3227.61 1582.61 3226.71 1578.12 3227.87C1577.23 3224.75 1576.82 3222.65 1576.98 3219.35C1577.54 3207.8 1536.12 3138.07 1527.45 3123.44C1492.41 3064.32 1452.23 3007.92 1415.93 2949.48Q1232.94 2649.27 1038.69 2356.12Q1004.4 2304.48 968.78 2253.74C956.779 2236.81 937.299 2217.87 930.317 2198.82C919.914 2194.29 903.847 2143.74 877.423 2129.41L876.327 2131.08L877.008 2129.54L877.264 2134.58L878.998 2132.22C875.234 2143.59 895.113 2161.92 900.39 2171.53C907.245 2184 911.138 2198.63 917.468 2211.57C926.129 2229.29 938.125 2244.87 945.366 2263.32L944.555 2263.74Q926.756 2237.02 910.018 2209.63C908.672 2214.18 907.71 2216.83 904.466 2220.35C900.189 2220.54 901.691 2220.64 897.803 2220.23C896.957 2220.14 896.115 2220.02 895.27 2219.92C904.912 2241.08 949.777 2298.29 951.441 2315.37C935.885 2300.45 910.543 2252.08 897.332 2231.86C875.759 2198.84 853.333 2166.35 832.546 2132.83C812.669 2100.77 794.435 2067.77 774.339 2035.83C735.649 1974.34 695.455 1913.72 657.267 1851.93C641.663 1826.68 628.191 1800.2 612.587 1774.93C578.895 1711.84 529.294 1649.83 491.079 1588.8C443.501 1512.82 402.547 1431.33 351.132 1357.95C342.754 1329.53 315.512 1308.98 309.071 1280.26C300.842 1259.67 283.753 1237.71 271.876 1218.57C235.1 1159.31 180.619 1081.19 155.813 1017.13C240.207 1015.3 324.377 1021.29 408.839 1017.16Z"/>
	<path fill="#884F17" transform="scale(0.0309302 0.030928)" d="M1718.22 3432.27L1721.37 3431.45C1721.79 3427.61 1722.27 3423.81 1722.39 3419.95C1722.47 3417.37 1722.31 3418.69 1723.3 3415.62L1722.77 3414.92L1723.99 3419.39L1721.26 3419.92L1720.77 3423.17L1723 3422.23C1725.81 3426.12 1727.46 3494.44 1726.41 3502.55C1725.99 3505.77 1724.98 3507.57 1723.14 3510.09L1705.65 3480.81L1710.27 3479.03C1717.71 3470.13 1713.8 3446.59 1713.87 3434.45L1718.22 3432.27Z"/>
	<defs>
		<linearGradient id="gradient_9" gradientUnits="userSpaceOnUse" x1="1715.9453" y1="3471.4312" x2="1691.9218" y2="3413.0723">
			<stop offset="0" stop-color="#75380D"/>
			<stop offset="1" stop-color="#8F5520"/>
		</linearGradient>
	</defs>
	<path fill="url(#gradient_9)" transform="scale(0.0309302 0.030928)" d="M1646.57 3389.22L1648.9 3385.92C1654.49 3392.69 1657.07 3397.09 1660.72 3405.04C1663.33 3410.73 1668.57 3416.45 1671.83 3422.09C1673.7 3425.34 1675.68 3427.81 1678.43 3430.34C1682.37 3424.44 1686.09 3417.55 1692.04 3413.52C1699.54 3416.48 1695.2 3423.51 1705.33 3419.68C1709.33 3418.16 1714.3 3412.61 1717.14 3409.62C1720.32 3415.62 1719.04 3425.51 1718.22 3432.27L1713.87 3434.45C1713.8 3446.59 1717.71 3470.13 1710.27 3479.03L1705.65 3480.81C1687.4 3449.57 1665.69 3420.03 1646.57 3389.22Z"/>
	<path fill="#674829" transform="scale(0.0309302 0.030928)" d="M155.813 1017.13C240.207 1015.3 324.377 1021.29 408.839 1017.16L428.856 1018.35L427.867 1020.51C414.06 1025.13 399.537 1026.5 385.527 1030.41C354.118 1039.19 315.698 1062.89 300.512 1092.34C292.434 1108 292.353 1118.91 296.835 1135.46C290.193 1126.22 287.319 1116.04 284.41 1105.19C302.79 1062.34 330.289 1053.6 361.141 1024.03C297.742 1021.53 233.148 1021.48 169.703 1022.59C177.59 1025.61 188.625 1028.61 195.003 1034.14C239.844 1073.06 267.274 1129.22 297.731 1179.06C306.008 1192.6 316.953 1206.26 323.64 1220.57C326.288 1226.23 327.129 1232.52 328.013 1238.65C314.387 1210.48 291.299 1191.03 273.657 1165.87C263.318 1151.12 251.91 1120.22 235.701 1112.03C234.825 1111.59 233.822 1111.46 232.882 1111.17C234.521 1119.48 244.318 1133.33 243.224 1140.19C242.501 1139.46 241.794 1138.7 241.055 1137.98C238.677 1135.66 236.752 1134.27 233.901 1132.67L234.065 1139.36C220.43 1130.68 213.002 1103.78 202.203 1090.62C195.697 1082.69 191.569 1071.5 184.425 1064.67C185.326 1076.1 289.106 1241.35 302.631 1263.47C310.432 1276.23 322.693 1290.51 327.753 1304.35C319.746 1298.66 315.256 1287.85 309.071 1280.26C300.842 1259.67 283.753 1237.71 271.876 1218.57C235.1 1159.31 180.619 1081.19 155.813 1017.13Z"/>
	<defs>
		<linearGradient id="gradient_10" gradientUnits="userSpaceOnUse" x1="273.19177" y1="1018.0569" x2="296.94113" y2="1242.6832">
			<stop offset="0" stop-color="#2C2015"/>
			<stop offset="1" stop-color="#725435"/>
		</linearGradient>
	</defs>
	<path fill="url(#gradient_10)" transform="scale(0.0309302 0.030928)" d="M169.703 1022.59C233.148 1021.48 297.742 1021.53 361.141 1024.03C330.289 1053.6 302.79 1062.34 284.41 1105.19C287.319 1116.04 290.193 1126.22 296.835 1135.46C320.504 1188.51 349.125 1241.4 381.06 1290.06C403.398 1324.1 457.532 1394.48 470.022 1428.21C474.076 1439.16 487.039 1446.1 483.835 1458.75C481.537 1456.24 480.99 1454.9 479.855 1451.63C474.972 1437.56 461.957 1422.92 453.793 1410.15C428.055 1369.87 401.754 1330.48 375.243 1290.77C363.387 1273 355.212 1253.35 342.846 1236.03L341.419 1235.64L339.506 1239.28C335.774 1240.24 332.835 1241.56 328.994 1240.82L328.013 1238.65C327.129 1232.52 326.288 1226.23 323.64 1220.57C316.953 1206.26 306.008 1192.6 297.731 1179.06C267.274 1129.22 239.844 1073.06 195.003 1034.14C188.625 1028.61 177.59 1025.61 169.703 1022.59Z"/>
	<path fill="#B09264" transform="scale(0.0309302 0.030928)" d="M930.317 2198.82C937.074 2203.66 941.232 2209.54 946.758 2215.58C974.004 2245.37 992.784 2273.51 1015.9 2305.9C1054.41 2359.87 1092.71 2412.97 1128.17 2469.07C1120.82 2449.58 1109.86 2432.63 1099.61 2414.8C1099.22 2414.12 1098.87 2411.55 1098.74 2410.71L1099.55 2410.57L1101.42 2414.87L1101.3 2412.45C1147.76 2480.11 1193.76 2550.46 1235.68 2621.01C1241 2629.97 1248.96 2641 1252.17 2650.78C1254.81 2658.81 1254.64 2666.37 1258.94 2674.09C1264.82 2684.65 1273.58 2692.89 1280.22 2702.83C1288.24 2714.81 1294.03 2728.7 1301.52 2741.12C1308.39 2752.51 1316.88 2762.4 1323.9 2773.43C1328.61 2780.83 1331.48 2790.18 1337.87 2796.29L1339.89 2794.77C1339.33 2788.23 1333.48 2784.85 1333.61 2778.19C1354.56 2796.92 1364.45 2845.16 1383.96 2868.33L1383.5 2865.2L1382.32 2866.67L1384.28 2867.79C1381.87 2860.43 1379.27 2853.33 1376.15 2846.23C1393.28 2865.13 1385.85 2870.76 1395.36 2886.82C1399.36 2893.57 1408.83 2896.74 1412.7 2903.5C1418.78 2914.11 1413.37 2924.74 1423.7 2937.45L1423.97 2933.37C1427.13 2935.78 1428.75 2936.8 1430.65 2940.37L1428.61 2946.55C1428.97 2947 1429.33 2947.44 1429.68 2947.89C1452.28 2976.75 1471.78 3011.6 1491.22 3042.76C1503.47 3062.39 1517.21 3081.52 1528.41 3101.75C1538.24 3119.52 1544.5 3138.78 1554.91 3156.37C1572.57 3186.17 1591.01 3215.28 1608.21 3245.32C1614.49 3256.27 1623.81 3266.68 1627.29 3278.8L1626.57 3280.1C1618.5 3272.72 1600.14 3241.03 1593.84 3238.06C1590.76 3233.7 1587.65 3229.44 1584.37 3225.24C1580.54 3227.61 1582.61 3226.71 1578.12 3227.87C1577.23 3224.75 1576.82 3222.65 1576.98 3219.35C1577.54 3207.8 1536.12 3138.07 1527.45 3123.44C1492.41 3064.32 1452.23 3007.92 1415.93 2949.48Q1232.94 2649.27 1038.69 2356.12Q1004.4 2304.48 968.78 2253.74C956.779 2236.81 937.299 2217.87 930.317 2198.82Z"/>
	<path fill="#946F3A" transform="scale(0.0309302 0.030928)" d="M1783.28 368.837C1809.05 370.752 1834.2 377.24 1860.21 378.671C1892.97 380.473 1926.12 379.206 1958.94 379.518Q2090.15 380.458 2221.36 379.8Q2332.36 378.89 2443.28 383.348C2474.68 384.41 2510.46 382.736 2541.12 389.602C2574.68 393.033 2689.14 406.226 2712 422.761Q2757.85 435.022 2803.38 448.377C2961.57 489.399 3130.99 590.442 3256.86 691.89C3274.97 706.488 3302.12 724.066 3315.03 743.467C3315.46 744.124 3315.7 744.894 3316.04 745.608C3296.48 729.06 3261.42 698.502 3239.68 686.927C3233.19 688.894 3229.28 692.925 3226.02 698.737C3223.33 703.531 3223 706.899 3223.36 712.28C3227.77 722.891 3291.69 781.367 3305.48 796.754C3336.01 830.818 3358.41 871.739 3389.2 906.176Q3423.25 944.868 3457.96 982.982C3515.2 1044.72 3611.36 1142.01 3643.96 1216.96C3654.89 1242.08 3658.32 1272.82 3662.45 1299.81C3666.42 1325.72 3670.05 1354.07 3661.44 1379.28C3664.46 1379.49 3666.76 1378.69 3668.78 1381.21C3670.98 1383.94 3671.86 1386.37 3673.23 1389.53C3675.65 1395.12 3677.72 1397.68 3682.28 1401.65C3678.14 1380.93 3677.96 1360.17 3680.85 1339.25C3683.87 1337.85 3682.76 1338.17 3685.71 1337.48C3686.35 1337.33 3687 1337.21 3687.64 1337.07L3690.73 1331.1L3692.68 1330.69C3704.57 1337.02 3710.17 1364.63 3715.16 1377.07C3741.17 1412.31 3735.5 1471.61 3750.52 1511.4C3754.48 1533.88 3757 1556.53 3759.71 1579.18C3767.12 1609.58 3767.83 1643.52 3769.5 1674.7C3772.24 1725.88 3773.81 1777.06 3770.8 1828.27C3766.43 1902.37 3755.27 1975.76 3748.6 2049.61C3743.35 2107.86 3743.19 2167.25 3734.56 2225.09C3726.81 2277.04 3712.32 2328.19 3701.47 2379.52L3704.51 2380.42C3703.14 2408.31 3690.39 2440.1 3682.56 2466.98C3655.42 2560.3 3626.2 2640.62 3583.42 2728.09C3565.34 2765.05 3542.57 2799.95 3525.42 2837.33L3524.21 2839.47C3525.04 2839.28 3525.88 2839.11 3526.7 2838.9C3531.46 2837.7 3536.06 2836.08 3540.69 2834.51L3543.17 2826.96L3546.73 2827.72C3548.48 2831.83 3548.87 2834.08 3546.96 2838.59C3546.18 2840.41 3544.12 2843.01 3542.9 2844.65L3543.34 2847.56C3546.35 2849.42 3547.44 2849.95 3551.06 2850.58C3534.33 2874 3517.5 2897.22 3499.73 2919.88C3436.94 2999.74 3370.75 3072.1 3297.15 3142.32C3277.65 3160.94 3257.29 3183.28 3235.4 3198.8C3140.06 3286.92 3026.73 3360.82 2912.98 3423.14C2890 3435.73 2865.9 3450.51 2841.48 3460.14C2846.11 3451.18 2854.5 3445.83 2862.33 3439.74C2803.72 3468.45 2743.83 3492.94 2684.38 3519.7C2665.99 3532.94 2631.71 3543.44 2610.36 3551.83C2563.12 3570.39 2515.37 3585.89 2467.19 3601.76Q2415.55 3619.21 2363.37 3634.98Q2311.19 3650.75 2258.51 3664.81Q2205.84 3678.87 2152.73 3691.22Q2099.63 3703.56 2046.14 3714.18C1988.64 3726.16 1928.87 3741.05 1870.06 3743.09L1872.96 3742.4C1867.26 3741.39 1861.85 3740.71 1856.06 3740.48C1856.66 3737.42 1856.08 3739.09 1858.27 3735.66L1874.1 3733.79C1844.65 3729.35 1818.83 3719.31 1788.34 3723.65L1785.13 3724.12L1780.99 3718.41L1776.8 3719.49L1774.63 3717.52L1776.64 3714.31L1783.47 3713.2C1781.76 3712.35 1779.9 3711.78 1778.67 3710.21C1775.67 3706.39 1775.39 3698.84 1775.09 3694.2C1772.93 3660.07 1779.96 3612.81 1780.17 3575.67L1784.33 3185.35Q1785.51 3057.68 1784.47 2930.01C1783.7 2878.32 1781.55 2826.66 1781.11 2774.96L1778.63 2278.25L1776.65 2278.68C1774.61 2184.1 1776.95 2089.04 1776.57 1994.39Q1774.38 1698.59 1775.23 1402.81L1777.44 1136.94C1778.1 1096.07 1783.43 1052.48 1780.33 1012C1779.77 1004.56 1776.96 997.224 1774.47 990.221C1767.4 998.029 1761.5 1007.48 1755.4 1016.07L1754.58 1010.75C1753.42 1010.12 1752.35 1009.29 1751.11 1008.86C1745.85 1007.04 1683.75 1009.56 1672.84 1009.51Q1466.99 1006.42 1261.11 1006.96C1238.75 1001.5 1163.35 1004.76 1135.95 1004.65L805.59 1003.96C787.319 1003.94 733.3 1007.38 718.423 1002.14C753.276 998.974 790.161 1001.83 825.287 1002.11C890.389 1002.63 955.802 1002.89 1020.87 1000.66C996.043 998.448 971.082 1001.17 946.227 999.178C928.043 997.724 898.273 995.826 881.307 992.398C871.494 990.415 861.244 985.845 851.504 984.577C846.023 983.862 843.828 987.062 839.864 990.214C831.323 990.886 813.143 979.613 805.05 975.722C801.182 978.399 797.406 980.474 793.161 982.508C771.024 976.637 753.366 978.439 730.995 977.253C718.565 976.594 706.253 974.289 693.791 973.747C677.37 973.033 660.768 974.2 644.261 973.656C637.504 973.433 630.488 975.551 623.81 975.2C616.17 974.799 616.68 969.924 609.783 969.414L605.072 974.774C591.456 962.473 529.637 964.317 510.797 960.477C497.168 957.7 448.234 958.579 440.488 953.368C465.171 942.448 556.2 954.501 573.315 945.081C575.44 943.911 576.802 941.719 578.546 940.038C581.535 945.137 582.987 946.511 588.952 947.788C613.748 953.096 646.213 950.473 671.722 950.662C741.856 951.181 812.022 950.157 882.158 949.91L1495.3 951.153L1649.04 951.061C1668.07 951.036 1688.16 952.789 1707.03 951.752C1711.76 951.492 1715.74 951.093 1719.88 948.622C1720.57 945.401 1720.64 943.505 1719.92 940.284L1719.86 938.991C1724.62 937.315 1726.15 935.683 1729.92 932.446L1729.76 939.558Q1755.38 938.618 1781.02 938.065C1786.59 847.772 1779.92 755.184 1778.94 664.623C1777.87 565.824 1781.87 467.52 1783.28 368.837ZM1955.02 1195.76C1952.76 1308.35 1953 1421.1 1952.29 1533.71L1951.44 2382.09Q1949.95 2940.49 1955.21 3498.84Q1977.91 3495.22 2000.54 3491.22Q2023.16 3487.22 2045.72 3482.83Q2068.28 3478.44 2090.76 3473.67Q2113.23 3468.89 2135.63 3463.74Q2158.02 3458.58 2180.32 3453.04Q2202.62 3447.5 2224.82 3441.58Q2247.02 3435.67 2269.11 3429.37Q2291.21 3423.07 2313.19 3416.4Q2335.17 3409.72 2357.04 3402.68Q2378.9 3395.63 2400.64 3388.21Q2422.38 3380.79 2443.99 3372.99Q2465.59 3365.2 2487.06 3357.04Q2508.53 3348.89 2529.86 3340.36Q2551.18 3331.84 2572.36 3322.95Q2593.53 3314.06 2614.55 3304.81Q2635.57 3295.57 2656.42 3285.96C2699.14 3265.85 2742.77 3245.46 2784.01 3222.49C2813.78 3205.91 2842.99 3185.58 2873.7 3171.09C2897.85 3153.3 2924.5 3138.56 2949.16 3121.4C3000.43 3085.73 3050.94 3046.42 3098.74 3006.27Q3124.56 2984.39 3149.3 2961.31Q3174.04 2938.22 3197.64 2913.99Q3221.24 2889.76 3243.64 2864.43Q3266.05 2839.1 3287.21 2812.74C3326.73 2764.32 3365.14 2714.6 3398.61 2661.81C3473.32 2544.02 3534.4 2397.75 3574.14 2264.28C3596.37 2189.62 3609.88 2113.85 3627.8 2038.29C3607.39 1987.01 3590.83 1934.49 3569.1 1883.61C3510.03 1745.28 3418.47 1599.71 3313.02 1491.67C3145.28 1319.81 2925.99 1199.99 2681.39 1196.31C2616.96 1199.22 2551.2 1196.08 2486.65 1195.85L2141.83 1195.15C2079.65 1195.14 2017.16 1194.01 1955.02 1195.76ZM1843.1 383.57C1854.96 482.969 1851.39 584.253 1851.45 684.263C1851.5 753.709 1854.74 824.746 1850.42 894.004C1868.08 880.135 1889.37 882.12 1910.68 882.051L1915.33 883.084L1931.03 886.369L1930.77 887.936C1935 891.291 1935.38 891.526 1936.01 897.133C1937.3 908.573 1935.83 921.4 1935.49 932.927C1938.01 939.436 1942.56 943.025 1949.01 945.566C1953.51 947.34 2674.12 950.252 2700.25 945.937C2784.33 942.002 2925.3 969.315 3002.56 1002.28C3038.33 1012.74 3073.18 1028.65 3106.89 1044.35Q3114.49 1047.94 3122.04 1051.63Q3129.59 1055.32 3137.1 1059.1Q3144.6 1062.89 3152.05 1066.78Q3159.5 1070.67 3166.89 1074.66Q3174.29 1078.64 3181.63 1082.73Q3188.98 1086.81 3196.26 1091Q3203.55 1095.18 3210.78 1099.46Q3218.01 1103.73 3225.18 1108.11Q3232.35 1112.48 3239.47 1116.95Q3246.58 1121.42 3253.63 1125.98Q3260.68 1130.55 3267.67 1135.2Q3274.66 1139.86 3281.59 1144.61Q3288.51 1149.36 3295.38 1154.2Q3302.24 1159.04 3309.03 1163.97Q3315.83 1168.9 3322.56 1173.92Q3329.29 1178.94 3335.95 1184.05Q3342.61 1189.16 3349.2 1194.36Q3355.8 1199.56 3362.32 1204.84Q3368.84 1210.13 3375.29 1215.5Q3381.74 1220.87 3388.11 1226.33Q3394.49 1231.78 3400.79 1237.32Q3407.1 1242.86 3413.33 1248.49Q3419.55 1254.11 3425.71 1259.82Q3431.86 1265.52 3437.93 1271.31Q3444.01 1277.1 3450 1282.97Q3456 1288.83 3461.91 1294.78Q3467.83 1300.73 3473.67 1306.75Q3479.5 1312.78 3485.26 1318.88Q3491.01 1324.98 3496.69 1331.16Q3502.36 1337.33 3507.95 1343.59Q3513.53 1349.84 3519.04 1356.17Q3524.54 1362.49 3529.96 1368.89Q3546.96 1388.08 3562.86 1408.18Q3578.76 1428.27 3593.53 1449.21C3605.7 1466.66 3616.63 1486.97 3630.72 1502.84L3631.76 1505.08L3634.2 1502.75C3638.65 1474.8 3625.16 1438.11 3620.48 1410.14C3625.05 1411.08 3629.56 1411.69 3634.18 1412.26C3648.89 1407.32 3654.32 1391.91 3661.44 1379.28C3670.05 1354.07 3666.42 1325.72 3662.45 1299.81C3658.32 1272.82 3654.89 1242.08 3643.96 1216.96C3611.36 1142.01 3515.2 1044.72 3457.96 982.982Q3423.25 944.868 3389.2 906.176C3358.41 871.739 3336.01 830.818 3305.48 796.754C3291.69 781.367 3227.77 722.891 3223.36 712.28C3223 706.899 3223.33 703.531 3226.02 698.737C3229.28 692.925 3233.19 688.894 3239.68 686.927C3261.42 698.502 3296.48 729.06 3316.04 745.608C3315.7 744.894 3315.46 744.124 3315.03 743.467C3302.12 724.066 3274.97 706.488 3256.86 691.89C3130.99 590.442 2961.57 489.399 2803.38 448.377Q2757.85 435.021 2712 422.761C2695.01 423.213 2663.21 411.467 2645.65 407.482C2629.57 403.829 2613.22 401.568 2596.83 399.762C2556.44 390.432 2509.81 391.207 2468.5 390.199Q2377.05 388.359 2285.58 388.016Q2064.32 387.392 1843.1 383.57Z"/>
	<path fill="#674829" transform="scale(0.0309302 0.030928)" d="M1950.94 1015.48L1988.11 1015.74C1960.76 1026.52 1888.75 1026.95 1875.19 1052.09C1859.77 1080.69 1866.48 1326.16 1866.36 1375.57Q1864.6 1537.05 1864.9 1698.54C1858.44 1671.07 1868.17 1624.94 1862.88 1594.47L1861.37 1595.37C1860.25 1602.69 1858.08 1612.17 1861.85 1618.97L1859.88 1622.22L1862.18 1625.52C1862.13 1641.45 1864.67 1663.68 1860.93 1678.76C1860.95 1678.18 1860.97 1677.59 1860.97 1677.01C1861.08 1664.6 1858.93 1652.4 1858.76 1640.24L1854.44 1355.43Q1854.1 1257.55 1851.05 1159.71C1850.21 1126.88 1851.52 1091.46 1846.09 1059.12C1845.51 1045.35 1845.01 1032.84 1841.29 1019.46Q1896.18 1019.12 1950.94 1015.48Z"/>
	<path fill="#221611" transform="scale(0.0309302 0.030928)" d="M1844.69 1022.24Q1880.38 1021.61 1916.06 1022.53L1877.56 1030.79C1867.3 1037.05 1864.8 1050.42 1861.15 1061.09C1851.52 1048.25 1848.32 1037.55 1844.69 1022.24Z"/>
	<path fill="#674829" transform="scale(0.0309302 0.030928)" d="M3253.89 3147.85C3247.3 3168.09 3217.99 3182.92 3206.93 3201.54L3209.41 3204.29C3217.43 3202.34 3223.94 3194.18 3231.95 3194.52C3233.1 3195.86 3234.56 3197.25 3235.4 3198.8C3140.06 3286.92 3026.73 3360.82 2912.98 3423.14C2890 3435.73 2865.9 3450.51 2841.48 3460.14C2846.11 3451.18 2854.5 3445.83 2862.33 3439.74C2803.72 3468.45 2743.83 3492.94 2684.38 3519.7L2683.36 3516.62C2703.33 3501.41 2734.57 3492.91 2757.87 3482.2C2787.09 3468.78 2816.27 3453.42 2845.01 3438.88Q2881.31 3420.14 2917.39 3400.99C2926.47 3396.24 2936.65 3392.39 2945.33 3387.09C2953.07 3382.37 2959.22 3375.42 2967.11 3371.01C2972.1 3368.22 2978.02 3366.93 2983.19 3364.51C2987.58 3362.45 2990.29 3360.66 2992.13 3356.14C2982.8 3354.69 2953.5 3380.27 2932.73 3383.79C2934.36 3381.74 3021.7 3329.59 3032.93 3321.98C3075.88 3292.87 3120.22 3263.57 3160.49 3230.97C3192.75 3204.85 3223.08 3175.67 3253.89 3147.85Z"/>
	<path fill="#524131" transform="scale(0.0309302 0.030928)" d="M3524.21 2839.47C3525.04 2839.28 3525.88 2839.11 3526.7 2838.9C3531.46 2837.7 3536.06 2836.08 3540.69 2834.51L3543.17 2826.96L3546.73 2827.72C3548.48 2831.83 3548.87 2834.08 3546.96 2838.59C3546.18 2840.41 3544.12 2843.01 3542.9 2844.65L3543.34 2847.56C3546.35 2849.42 3547.44 2849.95 3551.06 2850.58C3534.33 2874 3517.5 2897.22 3499.73 2919.88C3436.94 2999.74 3370.75 3072.1 3297.15 3142.32C3277.65 3160.94 3257.29 3183.28 3235.4 3198.8C3234.56 3197.25 3233.1 3195.86 3231.95 3194.52C3223.94 3194.18 3217.43 3202.34 3209.41 3204.29L3206.93 3201.54C3217.99 3182.92 3247.3 3168.09 3253.89 3147.85C3287.81 3116.99 3321.51 3085.15 3353.09 3051.92C3367 3037.28 3378.4 3019.76 3393.3 3006.22L3395.02 3003.71C3407.28 2986.28 3423.5 2970.69 3437.53 2954.59C3454.31 2935.33 3470.01 2915.09 3486.45 2895.53Q3497 2882.29 3506.46 2868.25Q3515.91 2854.21 3524.21 2839.47Z"/>
	<path fill="#FCFAF5" transform="scale(0.0309302 0.030928)" d="M2004.03 3559.71C2024.69 3560.41 2104.89 3540.83 2131.32 3535.97C2241.11 3515.73 2353.34 3500.56 2461.29 3471.79C2554.01 3447.09 2643.92 3410.81 2734.75 3380.09C2749.08 3375.25 2786.88 3361.51 2800.66 3368.25L2800.22 3373.08L2798.13 3373.81C2757.68 3388.31 2718.6 3407.86 2678.68 3423.95C2583.93 3462.13 2484.91 3498.46 2385.86 3523.65Q2217.64 3566.8 2047.26 3600.53C1978.81 3613.85 1890.84 3624.37 1826.22 3644.41C1836.79 3618.63 1855.21 3602.01 1880.96 3591.35C1918.81 3575.67 1963.99 3568.91 2004.03 3559.71Z"/>
	<defs>
		<linearGradient id="gradient_11" gradientUnits="userSpaceOnUse" x1="3656.7344" y1="2189.4414" x2="2157.866" y2="2062.7805">
			<stop offset="0" stop-color="#AB834C"/>
			<stop offset="1" stop-color="#D6A762"/>
		</linearGradient>
	</defs>
	<path fill="url(#gradient_11)" transform="scale(0.0309302 0.030928)" d="M2486.97 1016.16C2625.23 1013.54 2770.22 1011.68 2899.9 1066.03C2942.64 1083.94 2983.24 1108.04 3023.25 1131.23C3068.7 1157.58 3116.1 1185.16 3157.33 1217.65C3186.35 1240.53 3212.92 1267.04 3239.58 1292.59Q3267.15 1319.23 3291.89 1348.48C3301.96 1360.21 3311.59 1373.28 3322.89 1383.82L3323.54 1380.43C3276.56 1318.73 3208.45 1248.91 3146.24 1202.2C3121.03 1183.27 3092.5 1166.79 3065.99 1149.5C3039.42 1132.18 3000.53 1119.26 2979.36 1096C2976.47 1092.81 2972.11 1090.77 2968.36 1088.71L2968.74 1086.66C2979.49 1088.27 2989.69 1093.81 3000.51 1096.4L2997.12 1094.22C3008.43 1097.03 3020.15 1099.67 3030.95 1104.05C3041.43 1108.31 3050.95 1118.5 3061.94 1120.41L3064.14 1118.31C3073.05 1121.9 3078.63 1128.36 3086.78 1132.88C3094.82 1137.34 3103.8 1140.09 3111.9 1144.45C3119.68 1148.64 3126.56 1154.87 3134.18 1159.48C3161.08 1175.74 3188.41 1191.41 3214.15 1209.49C3227.65 1218.97 3238.29 1232.63 3252.76 1240.55C3275.38 1252.93 3290.13 1278.98 3312.44 1291.65L3314.44 1290.93C3293.28 1266.63 3263.1 1249.49 3243.12 1224.81C3302.53 1264.61 3378.33 1344.95 3423.64 1401.96C3437.17 1418.99 3446.24 1442.27 3461.66 1456.69C3464.49 1459.33 3464.98 1462.07 3466.97 1465.25C3471.37 1472.27 3478.56 1479.46 3484.79 1484.86L3485.75 1481.56L3477.89 1468.3L3478.57 1466.3L3485.23 1469.96C3484.82 1473.06 3485.15 1471.45 3484.15 1474.79C3485.08 1475.4 3486.04 1475.97 3486.94 1476.63C3497.61 1484.46 3497.21 1505.87 3506.77 1516.53L3505.65 1524.41C3501.23 1526.8 3500.64 1526.91 3495.61 1526.59C3483.8 1519.06 3477.32 1497.37 3469.15 1493.26C3469.2 1496.87 3469.56 1498.78 3470.55 1502.15C3472.47 1506.92 3477.94 1521.22 3482.24 1523.13C3507.42 1543.96 3566.11 1657.69 3582.61 1692.85C3591.57 1711.93 3598.24 1731.99 3606.98 1751.18C3618.76 1777.07 3637.14 1807.38 3642.5 1835.32C3643.11 1838.49 3642.74 1836.94 3644.35 1840.85C3644.45 1841.73 3644.53 1842.62 3644.64 1843.5C3645.75 1852.4 3649.29 1861.48 3651.12 1870.39C3656.98 1898.78 3662.95 1926.97 3669.99 1955.09C3670.71 1955.57 3671.44 1956.04 3672.15 1956.54C3674.39 1958.14 3675.75 1959.44 3677.45 1961.53C3680.29 1987.1 3693.01 2077.36 3681.41 2095.14C3681.05 2095.69 3680.56 2096.15 3680.14 2096.65L3672.89 2097.12C3668.31 2103.46 3672.77 2158.49 3669.43 2173.5L3668.77 2171.65C3664.08 2202.82 3661.79 2249.85 3651.53 2278.51C3636.62 2372.68 3601.01 2463.29 3567.87 2552.3C3560.28 2572.68 3534.09 2633.06 3532.18 2649.21C3536.05 2647.64 3535.66 2646.65 3537.2 2643.01C3538.38 2640.22 3537.94 2641.19 3538.9 2637.62C3541.07 2629.45 3547.06 2621.98 3550.72 2614.34C3556.73 2601.79 3563.46 2585.25 3566.74 2571.79L3569.9 2569.6L3577.17 2571.93C3573.55 2595.64 3545.42 2657.1 3534.01 2680.11L3541.45 2671.52L3542.71 2673.18C3540.53 2677.63 3538.41 2682.07 3535.98 2686.39C3529.69 2715.81 3497.34 2768.67 3480.22 2794.55C3447.96 2843.29 3414.14 2890.55 3375.91 2934.94C3361.52 2951.65 3344.87 2965.88 3329.65 2981.74C3240.43 3074.73 3144.83 3169.94 3035.85 3240.45C2990.27 3269.95 2845.45 3365.69 2800.22 3373.08L2800.66 3368.25C2786.88 3361.51 2749.08 3375.25 2734.75 3380.09C2643.92 3410.81 2554.01 3447.09 2461.29 3471.79C2353.34 3500.56 2241.11 3515.73 2131.32 3535.97C2104.89 3540.83 2024.69 3560.41 2004.03 3559.71C2020.41 3547.13 2264.85 3504.2 2303.76 3497.03C2331.78 3491.86 2359.42 3483.99 2387.42 3478.48C2410 3474.04 2433.08 3472.28 2455.36 3466.37C2572.17 3435.38 2684.41 3389.14 2797.79 3348.03C2821.96 3339.26 2850.66 3341.91 2873.8 3331.47C2968.78 3288.63 3090.8 3200.02 3169.17 3131.34C3183.34 3118.92 3198.79 3106.68 3211.23 3092.58C3208.6 3088.74 3208.03 3089.43 3203.75 3088.2L3200.41 3093.96C3189.53 3098.36 3184.89 3107.14 3177.47 3115.77C3167.46 3127.42 3166.7 3130.47 3151.35 3131.99C3145.44 3132.58 3142.35 3136.9 3138.76 3141.08L3137.48 3142.59C3134.46 3140.68 3135.35 3136.31 3132.43 3133.08C3128.05 3137.15 3127.12 3141.6 3125.32 3146.97C3117.31 3170.85 3102.21 3166.66 3082.81 3177.07C3079.86 3178.65 3078.36 3180.01 3074.8 3180.07C3072.49 3180.11 3069.97 3179.87 3067.61 3179.85C3055.37 3179.75 3051.33 3194.96 3042.07 3200.96C3038.31 3198.73 3034.51 3196.76 3030.6 3194.81C3029.85 3198.41 3029.8 3196.77 3030.89 3200.83C3031.16 3201.86 3031.49 3202.88 3031.79 3203.91L3028.3 3209.01C3024 3211.19 3023.81 3212.2 3018.85 3211.32C3017.16 3207.47 3015.4 3203.96 3013.18 3200.39L3009.11 3201.49L3005.47 3208.25C2998.11 3210.21 2995.48 3203.34 2987.56 3205.05L2985.65 3209.98C2978.7 3211.74 2970.05 3206.78 2963.17 3204.49L2961.1 3205.63C2960.85 3209.59 2959.84 3212.39 2958.34 3216.04L2955.88 3216.39C2955.23 3212.91 2954.97 3211.6 2952.94 3208.56L2945.26 3216.49L2943.09 3215.25L2943.32 3210.88C2937.75 3211.18 2931.54 3212.79 2927.16 3209.24C2927.39 3205.43 2927.5 3201.77 2927.32 3197.96L2924.21 3196.67Q2914.8 3200.47 2905.57 3204.67L2903.05 3203.27L2903.67 3195.37C2899.74 3192.66 2896.43 3191.66 2891.82 3190.46C2885.88 3191.82 2883.15 3195.41 2878.66 3199.4C2861.97 3199.53 2845.47 3203.15 2832.15 3213.74C2822.12 3221.72 2810.08 3228.19 2797.26 3230.42C2808.6 3223.77 2818.45 3216.29 2828.54 3207.92L2825.37 3209.22C2839.66 3197.42 2863.89 3185.77 2873.7 3171.09C2897.85 3153.3 2924.5 3138.56 2949.16 3121.4C3000.43 3085.73 3050.94 3046.42 3098.74 3006.27Q3124.56 2984.39 3149.3 2961.31Q3174.04 2938.22 3197.64 2913.99Q3221.24 2889.76 3243.64 2864.43Q3266.05 2839.1 3287.21 2812.74C3326.73 2764.32 3365.14 2714.6 3398.61 2661.81C3473.32 2544.02 3534.4 2397.75 3574.14 2264.28C3596.37 2189.62 3609.88 2113.85 3627.8 2038.29C3607.39 1987.01 3590.83 1934.49 3569.1 1883.61C3510.03 1745.28 3418.47 1599.71 3313.02 1491.67C3145.28 1319.81 2925.99 1199.99 2681.39 1196.31C2672.46 1187.07 2069.2 1197.66 1992.34 1186.34C2031.81 1181.91 2072.38 1182.06 2112.07 1180.06C2135.17 1178.89 2158.09 1175.61 2181.14 1174.51C2191.88 1174 2226.96 1176.42 2234.99 1172.61C2236.13 1172.07 2237.21 1171.41 2238.34 1170.85C2244.79 1167.59 2249.76 1164.65 2255.08 1159.66C2258.17 1156.76 2259 1155.26 2263.17 1154.25L2266 1159.77L2271.07 1157.93L2271.93 1155.38L2268.1 1151.96L2268.95 1149C2280.02 1142.02 2318.33 1112.64 2325.81 1110.92C2329.18 1114.28 2330.26 1115.65 2334.93 1117.12C2339.23 1112.64 2343.54 1108.16 2348.23 1104.07C2353.81 1099.21 2362.56 1090.79 2370.46 1091.23L2372.61 1097.57C2378.48 1085.62 2384.96 1071.22 2396.78 1063.83C2400.59 1061.45 2403.05 1061.09 2407.46 1061.94L2411.87 1070.24L2414.71 1069.19L2415.41 1061.3L2414.69 1061.25L2410.93 1064.65L2409.28 1062.47C2412.78 1055.13 2421.21 1052.43 2428.5 1049.73C2432.72 1048.16 2431.29 1045.3 2433.98 1043.77C2436.87 1042.12 2452.75 1042.63 2457.86 1041.24C2461.28 1037.11 2464.58 1033.6 2468.6 1030.05L2473.15 1031.41C2476.49 1030.25 2479.13 1029.2 2482.12 1027.26C2483 1026.68 2483.82 1026.01 2484.73 1025.49C2485.74 1024.91 2486.82 1024.46 2487.87 1023.95C2487.62 1021.34 2487.31 1018.76 2486.97 1016.16Z"/>
	<defs>
		<linearGradient id="gradient_12" gradientUnits="userSpaceOnUse" x1="3545.1082" y1="1812.1045" x2="3616.5239" y2="1780.9746">
			<stop offset="0" stop-color="#D1B584"/>
			<stop offset="1" stop-color="#E1D1AB"/>
		</linearGradient>
	</defs>
	<path fill="url(#gradient_12)" transform="scale(0.0309302 0.030928)" d="M3651.53 2278.51C3651.63 2243.16 3661.5 2206.43 3664.05 2170.84C3668.03 2115.31 3660.39 2061.81 3653.59 2006.87C3649.95 1977.47 3647.26 1947.62 3639.97 1918.84C3627.11 1868.11 3599.85 1821.33 3575.37 1775.42Q3547.73 1722.49 3518.56 1670.38C3501.11 1639.51 3478.39 1607.17 3465.03 1574.49C3460.25 1562.79 3457.67 1549.89 3454.32 1537.73C3451.87 1528.82 3448.55 1519.33 3447.77 1510.16C3447.38 1505.65 3446.69 1507.22 3448.77 1504.67L3450.65 1507.51L3447.06 1508.7L3451.05 1508.64L3453.69 1515.57L3454.15 1513.06L3455.14 1516.52C3456.18 1514.1 3456.37 1513.33 3458.17 1510.95C3461.25 1506.9 3465.5 1502.44 3470.55 1502.15C3472.47 1506.92 3477.94 1521.22 3482.24 1523.13C3507.42 1543.96 3566.11 1657.69 3582.61 1692.85C3591.57 1711.93 3598.24 1731.99 3606.98 1751.18C3618.76 1777.07 3637.14 1807.38 3642.5 1835.32C3643.11 1838.49 3642.74 1836.94 3644.35 1840.85C3644.45 1841.73 3644.53 1842.62 3644.64 1843.5C3645.75 1852.4 3649.29 1861.48 3651.12 1870.39C3656.98 1898.78 3662.95 1926.97 3669.99 1955.09C3670.71 1955.57 3671.44 1956.04 3672.15 1956.54C3674.39 1958.14 3675.75 1959.44 3677.45 1961.53C3680.29 1987.1 3693.01 2077.36 3681.41 2095.14C3681.05 2095.69 3680.56 2096.15 3680.14 2096.65L3672.89 2097.12C3668.31 2103.46 3672.77 2158.49 3669.43 2173.5L3668.77 2171.65C3664.08 2202.82 3661.79 2249.85 3651.53 2278.51Z"/>
	<path fill="#E9D39A" transform="scale(0.0309302 0.030928)" d="M3482.24 1523.13C3507.42 1543.96 3566.11 1657.69 3582.61 1692.85C3591.57 1711.93 3598.24 1731.99 3606.98 1751.18C3618.76 1777.07 3637.14 1807.38 3642.5 1835.32C3643.11 1838.49 3642.74 1836.94 3644.35 1840.85L3639.69 1844.77C3634.97 1843.05 3620.05 1797.73 3616.83 1789.42C3596.47 1736.82 3571.31 1681.74 3544.15 1632.36C3523.96 1595.67 3500.28 1561.08 3482.24 1523.13Z"/>
	<path fill="#C5A877" transform="scale(0.0309302 0.030928)" d="M1783.28 368.837C1809.05 370.752 1834.2 377.24 1860.21 378.671C1892.97 380.473 1926.12 379.206 1958.94 379.518Q2090.15 380.458 2221.36 379.8Q2332.36 378.89 2443.28 383.348C2474.68 384.41 2510.46 382.736 2541.12 389.602C2574.68 393.033 2689.14 406.226 2712 422.761C2695.01 423.213 2663.21 411.467 2645.65 407.482C2629.57 403.829 2613.22 401.568 2596.83 399.762C2556.44 390.432 2509.81 391.207 2468.5 390.199Q2377.05 388.359 2285.58 388.016Q2064.32 387.392 1843.1 383.57C1854.96 482.969 1851.39 584.253 1851.45 684.263C1851.5 753.709 1854.74 824.746 1850.42 894.004C1868.08 880.135 1889.37 882.12 1910.68 882.051L1915.33 883.084L1931.03 886.369L1930.77 887.936C1935 891.291 1935.38 891.526 1936.01 897.133C1937.3 908.573 1935.83 921.4 1935.49 932.927C1938.01 939.436 1942.56 943.025 1949.01 945.566C1953.51 947.34 2674.12 950.252 2700.25 945.937C2784.33 942.002 2925.3 969.315 3002.56 1002.28C3038.33 1012.74 3073.18 1028.65 3106.89 1044.35Q3114.49 1047.94 3122.04 1051.63Q3129.59 1055.32 3137.1 1059.1Q3144.6 1062.89 3152.05 1066.78Q3159.5 1070.67 3166.89 1074.66Q3174.29 1078.64 3181.63 1082.73Q3188.98 1086.81 3196.26 1091Q3203.55 1095.18 3210.78 1099.46Q3218.01 1103.73 3225.18 1108.11Q3232.35 1112.48 3239.47 1116.95Q3246.58 1121.42 3253.63 1125.98Q3260.68 1130.55 3267.67 1135.2Q3274.66 1139.86 3281.59 1144.61Q3288.51 1149.36 3295.38 1154.2Q3302.24 1159.04 3309.03 1163.97Q3315.83 1168.9 3322.56 1173.92Q3329.29 1178.94 3335.95 1184.05Q3342.61 1189.16 3349.2 1194.36Q3355.8 1199.56 3362.32 1204.84Q3368.84 1210.13 3375.29 1215.5Q3381.74 1220.87 3388.11 1226.33Q3394.49 1231.78 3400.79 1237.32Q3407.1 1242.86 3413.33 1248.49Q3419.55 1254.11 3425.71 1259.82Q3431.86 1265.52 3437.93 1271.31Q3444.01 1277.1 3450 1282.97Q3456 1288.83 3461.91 1294.78Q3467.83 1300.73 3473.67 1306.75Q3479.5 1312.78 3485.26 1318.88Q3491.01 1324.98 3496.69 1331.16Q3502.36 1337.33 3507.95 1343.59Q3513.53 1349.84 3519.04 1356.17Q3524.54 1362.49 3529.96 1368.89Q3546.96 1388.08 3562.86 1408.18Q3578.76 1428.27 3593.53 1449.21C3605.7 1466.66 3616.63 1486.97 3630.72 1502.84L3631.76 1505.08L3634.2 1502.75C3638.65 1474.8 3625.16 1438.11 3620.48 1410.14C3625.05 1411.08 3629.56 1411.69 3634.18 1412.26C3648.89 1407.32 3654.32 1391.91 3661.44 1379.28C3664.46 1379.49 3666.76 1378.69 3668.78 1381.21C3670.98 1383.94 3671.86 1386.37 3673.23 1389.53C3675.65 1395.12 3677.72 1397.68 3682.28 1401.65C3678.14 1380.93 3677.96 1360.17 3680.85 1339.25C3683.87 1337.85 3682.76 1338.17 3685.71 1337.48C3686.35 1337.33 3687 1337.21 3687.64 1337.07L3690.73 1331.1L3692.68 1330.69C3704.57 1337.02 3710.17 1364.63 3715.16 1377.07C3741.17 1412.31 3735.5 1471.61 3750.52 1511.4C3754.48 1533.88 3757 1556.53 3759.71 1579.18C3767.12 1609.58 3767.83 1643.52 3769.5 1674.7C3772.24 1725.88 3773.81 1777.06 3770.8 1828.27C3766.43 1902.37 3755.27 1975.76 3748.6 2049.61C3743.35 2107.86 3743.19 2167.25 3734.56 2225.09C3726.81 2277.04 3712.32 2328.19 3701.47 2379.52C3696.42 2410.91 3684.86 2442.46 3675.38 2472.83C3648.52 2558.87 3621.4 2645.43 3576.46 2724.28C3571.07 2723.26 3568.43 2722.16 3564.89 2717.81C3559.35 2710.98 3558.16 2700.08 3558.91 2691.66L3560.69 2688.66C3552.48 2687.29 3544.33 2685.92 3535.98 2686.39C3538.41 2682.07 3540.53 2677.63 3542.71 2673.18L3541.45 2671.52L3534.01 2680.11C3545.42 2657.1 3573.55 2595.64 3577.17 2571.93L3569.9 2569.6L3566.74 2571.79C3563.46 2585.25 3556.73 2601.79 3550.72 2614.34C3547.06 2621.98 3541.07 2629.45 3538.9 2637.62C3537.94 2641.19 3538.38 2640.22 3537.2 2643.01C3535.66 2646.65 3536.05 2647.64 3532.18 2649.21C3534.09 2633.06 3560.28 2572.68 3567.87 2552.3C3601.01 2463.29 3636.62 2372.68 3651.53 2278.51C3661.79 2249.85 3664.08 2202.82 3668.77 2171.65L3669.43 2173.5C3672.77 2158.49 3668.31 2103.46 3672.89 2097.12L3680.14 2096.65C3680.56 2096.15 3681.05 2095.69 3681.41 2095.14C3693.01 2077.36 3680.29 1987.1 3677.45 1961.53C3675.75 1959.44 3674.39 1958.14 3672.15 1956.54C3671.44 1956.04 3670.71 1955.57 3669.99 1955.09C3662.95 1926.97 3656.98 1898.78 3651.12 1870.39C3649.29 1861.48 3645.75 1852.4 3644.64 1843.5C3644.53 1842.62 3644.45 1841.73 3644.35 1840.85C3642.74 1836.94 3643.11 1838.49 3642.5 1835.32C3637.14 1807.38 3618.76 1777.07 3606.98 1751.18C3598.24 1731.99 3591.57 1711.93 3582.61 1692.85C3566.11 1657.69 3507.42 1543.96 3482.24 1523.13C3477.94 1521.22 3472.47 1506.92 3470.55 1502.15C3469.56 1498.78 3469.2 1496.87 3469.15 1493.26C3477.32 1497.37 3483.8 1519.06 3495.61 1526.59C3500.64 1526.91 3501.23 1526.8 3505.65 1524.41L3506.77 1516.53C3497.21 1505.87 3497.61 1484.46 3486.94 1476.63C3486.04 1475.97 3485.08 1475.4 3484.15 1474.79C3485.15 1471.45 3484.82 1473.06 3485.23 1469.96L3478.57 1466.3L3477.89 1468.3L3485.75 1481.56L3484.79 1484.86C3478.56 1479.46 3471.37 1472.27 3466.97 1465.25C3464.98 1462.07 3464.49 1459.33 3461.66 1456.69C3446.24 1442.27 3437.17 1418.99 3423.64 1401.96C3378.33 1344.95 3302.53 1264.61 3243.12 1224.81C3263.1 1249.49 3293.28 1266.63 3314.44 1290.93L3312.44 1291.65C3290.13 1278.98 3275.38 1252.93 3252.76 1240.55C3238.29 1232.63 3227.65 1218.97 3214.15 1209.49C3188.41 1191.41 3161.08 1175.74 3134.18 1159.48C3126.56 1154.87 3119.68 1148.64 3111.9 1144.45C3103.8 1140.09 3094.82 1137.34 3086.78 1132.88C3078.63 1128.36 3073.05 1121.9 3064.14 1118.31L3061.94 1120.41C3050.95 1118.5 3041.43 1108.31 3030.95 1104.05C3020.15 1099.67 3008.43 1097.03 2997.12 1094.22L3000.51 1096.4C2989.69 1093.81 2979.49 1088.27 2968.74 1086.66L2968.36 1088.71C2972.11 1090.77 2976.47 1092.81 2979.36 1096C3000.53 1119.26 3039.42 1132.18 3065.99 1149.5C3092.5 1166.79 3121.03 1183.27 3146.24 1202.2C3208.45 1248.91 3276.56 1318.73 3323.54 1380.43L3322.89 1383.82C3311.59 1373.28 3301.96 1360.21 3291.89 1348.48Q3267.15 1319.23 3239.58 1292.59C3212.92 1267.04 3186.35 1240.53 3157.33 1217.65C3116.1 1185.16 3068.7 1157.58 3023.25 1131.23C2983.24 1108.04 2942.64 1083.94 2899.9 1066.03C2770.22 1011.68 2625.23 1013.54 2486.97 1016.16L2484.79 1018.57C2473.97 1012.98 2381.46 1016.58 2359.47 1016.46C2269.23 1015.96 2178.71 1021.21 2088.5 1020.33C2036.87 1019.83 2006.21 1007.66 1950.94 1015.48Q1896.18 1019.12 1841.29 1019.46C1845.01 1032.84 1845.51 1045.35 1846.09 1059.12C1843.95 1150.98 1848.08 1243.28 1847.68 1335.22C1847.52 1374.12 1848.46 1413.62 1844.36 1452.33L1841.64 1300.04C1841.42 1280.9 1839.28 1259.66 1841.2 1240.71L1838.34 1236.46C1837.37 1242.88 1839.08 1253.57 1835.88 1258.71L1832.02 1259.22C1820.35 1247.64 1816.96 1227.81 1807.55 1214.12C1805.42 1211.02 1804.78 1209.14 1804.06 1205.51C1797.79 1208.95 1793.26 1220.73 1791.25 1227.4C1780.45 1263.27 1782.52 1309.19 1781.35 1346.68Q1778.05 1474.29 1778.63 1601.94L1778.63 2278.25L1776.65 2278.68C1774.61 2184.1 1776.95 2089.04 1776.57 1994.39Q1774.38 1698.59 1775.23 1402.81L1777.44 1136.94C1778.1 1096.07 1783.43 1052.48 1780.33 1012C1779.77 1004.56 1776.96 997.224 1774.47 990.221C1767.4 998.029 1761.5 1007.48 1755.4 1016.07L1754.58 1010.75C1753.42 1010.12 1752.35 1009.29 1751.11 1008.86C1745.85 1007.04 1683.75 1009.56 1672.84 1009.51Q1466.99 1006.42 1261.11 1006.96C1238.75 1001.5 1163.35 1004.76 1135.95 1004.65L805.59 1003.96C787.319 1003.94 733.3 1007.38 718.423 1002.14C753.276 998.974 790.161 1001.83 825.287 1002.11C890.389 1002.63 955.802 1002.89 1020.87 1000.66C996.043 998.448 971.082 1001.17 946.227 999.178C928.043 997.724 898.273 995.826 881.307 992.398C871.494 990.415 861.244 985.845 851.504 984.577C846.023 983.862 843.828 987.062 839.864 990.214C831.323 990.886 813.143 979.613 805.05 975.722C801.182 978.399 797.406 980.474 793.161 982.508C771.024 976.637 753.366 978.439 730.995 977.253C718.565 976.594 706.253 974.289 693.791 973.747C677.37 973.033 660.768 974.2 644.261 973.656C637.504 973.433 630.488 975.551 623.81 975.2C616.17 974.799 616.68 969.924 609.783 969.414L605.072 974.774C591.456 962.473 529.637 964.317 510.797 960.477C497.168 957.7 448.234 958.579 440.488 953.368C465.171 942.448 556.2 954.501 573.315 945.081C575.44 943.911 576.802 941.719 578.546 940.038C581.535 945.137 582.987 946.511 588.952 947.788C613.748 953.096 646.213 950.473 671.722 950.662C741.856 951.181 812.022 950.157 882.158 949.91L1495.3 951.153L1649.04 951.061C1668.07 951.036 1688.16 952.789 1707.03 951.752C1711.76 951.492 1715.74 951.093 1719.88 948.622C1720.57 945.401 1720.64 943.505 1719.92 940.284L1719.86 938.991C1724.62 937.315 1726.15 935.683 1729.92 932.446L1729.76 939.558Q1755.38 938.618 1781.02 938.065C1786.59 847.772 1779.92 755.184 1778.94 664.623C1777.87 565.824 1781.87 467.52 1783.28 368.837Z"/>
	<path fill="#FCFAF5" transform="scale(0.0309302 0.030928)" d="M1815.62 933.427C1823.33 923.521 1832.43 913.695 1842.07 905.613C1868.97 883.069 1898.11 885.516 1930.77 887.936C1935 891.291 1935.38 891.526 1936.01 897.133C1937.3 908.573 1935.83 921.4 1935.49 932.927L1935.08 934.095C1895.25 934.375 1855.44 934.849 1815.62 933.427Z"/>
	<path fill="#E9D39A" transform="scale(0.0309302 0.030928)" d="M1783.28 368.837C1809.05 370.752 1834.2 377.24 1860.21 378.671C1892.97 380.473 1926.12 379.206 1958.94 379.518Q2090.15 380.458 2221.36 379.8Q2332.36 378.89 2443.28 383.348C2474.68 384.41 2510.46 382.736 2541.12 389.602C2470.16 387.615 2399.3 384.312 2328.3 383.588C2164.71 381.922 2001.02 384.647 1837.45 380.776C1839.67 409.177 1838.34 437.249 1840.02 465.397L1838.57 467.167L1836.7 466.212C1836.93 465.665 1837.23 465.142 1837.4 464.57C1839.37 457.718 1836.4 445.875 1835.54 438.641C1832.56 442.496 1834.03 445.591 1830.2 447.818C1826.9 444.929 1824.71 442.138 1822.2 438.609C1819.54 434.861 1818.14 433.001 1813.58 431.475C1807.36 433.28 1804.37 435.263 1801.24 441.063C1797.77 447.506 1796.67 454.134 1795.35 461.221C1794.78 464.266 1794.06 467.135 1793.36 470.142C1792.52 473.744 1792.59 472.221 1793.35 475.148C1795.09 481.868 1791.19 493.317 1788.94 499.786C1783 516.892 1787.09 547.974 1786.75 567.03C1785.48 637.104 1784.43 706.762 1785.24 776.89C1785.86 830.461 1789.85 886.399 1784.62 939.651C1766.67 940.873 1747.62 942.028 1729.76 939.558Q1755.38 938.618 1781.02 938.065C1786.59 847.772 1779.92 755.184 1778.94 664.623C1777.87 565.824 1781.87 467.52 1783.28 368.837Z"/>
	<path fill="#B09264" transform="scale(0.0309302 0.030928)" d="M1935.08 934.095L1935.49 932.927C1938.01 939.436 1942.56 943.025 1949.01 945.566C1953.51 947.34 2674.12 950.252 2700.25 945.937C2784.33 942.002 2925.3 969.315 3002.56 1002.28C2960.87 1005.8 2914.71 993.774 2874.55 983.292C2863.08 980.299 2853.12 975.012 2841.01 974.821C2825.21 974.571 2788.28 977.868 2774.98 969.506L2776.57 967.925L2776.3 965.824C2734.82 953.336 2640.17 956.58 2593.57 956.692L2337.52 959.236C2306.25 959.735 2274.36 956.373 2243.26 954.543C2232.63 953.918 2222.06 958.183 2211.5 958.628C2182.21 959.863 2153.19 954.903 2124.02 954.54C2113.11 954.404 2101.53 954.217 2090.72 955.728C2074.22 958.036 2061.71 962.337 2044.46 960.393L2044.17 959.721C2052.99 956.414 2062.76 956.054 2072.08 955.042L2044.05 954.463C2041.1 956.618 2041.72 955.698 2040.07 958.329C2035.43 965.726 1991.06 952.081 1980.56 957.349C1969.68 962.808 1953.52 952.111 1940.97 950.816C1933.68 950.063 1817.19 949.538 1816.96 949.621Q1816.65 954.56 1816.48 959.505L1811.76 957.935C1808.9 953.53 1809.09 953.207 1809.45 947.928C1826.46 924.989 1909.96 950.994 1935.08 934.095Z"/>
	<path fill="#958A7E" transform="scale(0.0309302 0.030928)" d="M1838.34 1236.46C1840.22 1228.1 1837.86 1218.18 1838.2 1209.57C1839.91 1165.43 1847.56 1060.27 1837.08 1022.82C1835.55 1017.38 1832.52 1009.2 1835.09 1004.01C1836.08 1007.62 1837.08 1010.78 1838.78 1014.13C1868.4 1010.11 1900.43 1012.49 1930.49 1010.86C1954.26 1009.57 1977.93 1006.85 2001.69 1005.63C2060.74 1002.61 2119.73 1001.47 2178.81 999.583C2185.07 1002.87 2193.14 999.782 2198.33 1003.35C2155.79 1006.16 2112.89 1006.84 2070.27 1007.97C2110.21 1011.84 2150.68 1009.95 2190.77 1010.04C2283.81 1010.23 2376.98 1007.92 2470.02 1008.76C2531.46 1009.32 2592.96 1012.46 2654.42 1013.68C2676.71 1014.12 2701.55 1017.16 2723.52 1014.29C2709.86 1012.66 2619.47 1002.69 2612.88 997.243C2615.03 996.582 2615.56 996.316 2618.13 996.138C2643.77 994.365 2687.31 1005.61 2714.02 1009.91C2867.42 1034.58 2992.28 1070.07 3128.05 1147.56C3167.93 1170.32 3207.71 1195.55 3243.12 1224.81C3263.1 1249.49 3293.28 1266.63 3314.44 1290.93L3312.44 1291.65C3290.13 1278.98 3275.38 1252.93 3252.76 1240.55C3238.29 1232.63 3227.65 1218.97 3214.15 1209.49C3188.41 1191.41 3161.08 1175.74 3134.18 1159.48C3126.56 1154.87 3119.68 1148.64 3111.9 1144.45C3103.8 1140.09 3094.82 1137.34 3086.78 1132.88C3078.63 1128.36 3073.05 1121.9 3064.14 1118.31L3061.94 1120.41C3050.95 1118.5 3041.43 1108.31 3030.95 1104.05C3020.15 1099.67 3008.43 1097.03 2997.12 1094.22L3000.51 1096.4C2989.69 1093.81 2979.49 1088.27 2968.74 1086.66L2968.36 1088.71C2972.11 1090.77 2976.47 1092.81 2979.36 1096C3000.53 1119.26 3039.42 1132.18 3065.99 1149.5C3092.5 1166.79 3121.03 1183.27 3146.24 1202.2C3208.45 1248.91 3276.56 1318.73 3323.54 1380.43L3322.89 1383.82C3311.59 1373.28 3301.96 1360.21 3291.89 1348.48Q3267.15 1319.23 3239.58 1292.59C3212.92 1267.04 3186.35 1240.53 3157.33 1217.65C3116.1 1185.16 3068.7 1157.58 3023.25 1131.23C2983.24 1108.04 2942.64 1083.94 2899.9 1066.03C2770.22 1011.68 2625.23 1013.54 2486.97 1016.16L2484.79 1018.57C2473.97 1012.98 2381.46 1016.58 2359.47 1016.46C2269.23 1015.96 2178.71 1021.21 2088.5 1020.33C2036.87 1019.83 2006.21 1007.66 1950.94 1015.48Q1896.18 1019.12 1841.29 1019.46C1845.01 1032.84 1845.51 1045.35 1846.09 1059.12C1843.95 1150.98 1848.08 1243.28 1847.68 1335.22C1847.52 1374.12 1848.46 1413.62 1844.36 1452.33L1841.64 1300.04C1841.42 1280.9 1839.28 1259.66 1841.2 1240.71L1838.34 1236.46Z"/>
	<path fill="#E9D39A" transform="scale(0.0309302 0.030928)" d="M3682.28 1401.65C3678.14 1380.93 3677.96 1360.17 3680.85 1339.25C3683.87 1337.85 3682.76 1338.17 3685.71 1337.48C3686.35 1337.33 3687 1337.21 3687.64 1337.07L3690.73 1331.1L3692.68 1330.69C3704.57 1337.02 3710.17 1364.63 3715.16 1377.07C3741.17 1412.31 3735.5 1471.61 3750.52 1511.4C3754.48 1533.88 3757 1556.53 3759.71 1579.18L3759.69 1580.97C3759.67 1600.54 3762.74 1620.44 3764.34 1639.96C3767.1 1673.66 3769.18 1707.73 3770.05 1741.54C3772.39 1832.37 3761.2 1922.5 3747.47 2012.05C3745.55 2024.62 3745.13 2037.34 3743.08 2049.88C3741.83 2041.86 3742.69 2033.52 3740.78 2025.7C3732.8 1993.04 3720.04 1979.62 3717.83 1939.53C3717.1 1926.26 3710.32 1913.8 3710.16 1900.73C3709.63 1857.66 3725.38 1845.43 3714.65 1794.16L3714.95 1796.39L3712.13 1793.89L3714.15 1793.24L3707.84 1798.44L3714.89 1798.94L3710.64 1796.07L3710.9 1795.39C3707.38 1799.11 3706.31 1800.92 3701.45 1802.37C3696.46 1796.59 3696.8 1788.39 3693.6 1781.45C3688.83 1771.12 3686.73 1750.88 3690.51 1740.4L3693.37 1739.74L3697 1745.62C3696.98 1726.22 3666.43 1673.66 3666.51 1652.27L3667.22 1651.78C3680.73 1677.55 3681.96 1711.57 3700.4 1734.32C3696.87 1717.56 3689.9 1700.45 3684.62 1684.09C3667.09 1634.97 3645.78 1588.41 3623.88 1541.13C3610.9 1513.1 3598.87 1485.04 3582.83 1458.54C3565.57 1430.04 3536.83 1399.89 3522.82 1372.99Q3526.43 1371.01 3529.96 1368.89Q3546.96 1388.08 3562.86 1408.18Q3578.76 1428.27 3593.53 1449.21C3605.7 1466.66 3616.63 1486.97 3630.72 1502.84L3631.76 1505.08L3634.2 1502.75C3638.65 1474.8 3625.16 1438.11 3620.48 1410.14C3625.05 1411.08 3629.56 1411.69 3634.18 1412.26C3648.89 1407.32 3654.32 1391.91 3661.44 1379.28C3664.46 1379.49 3666.76 1378.69 3668.78 1381.21C3670.98 1383.94 3671.86 1386.37 3673.23 1389.53C3675.65 1395.12 3677.72 1397.68 3682.28 1401.65Z"/>
	<path fill="#884F17" transform="scale(0.0309302 0.030928)" d="M3684.62 1684.09C3682.98 1672.33 3686.59 1665.25 3688.42 1653.99C3697.43 1598.81 3688.82 1542.02 3691.82 1486.28C3695.84 1504.61 3711.97 1549.61 3719.54 1567L3720.46 1569.05C3734.63 1636.04 3749.14 1770.02 3729.32 1834.11C3725.51 1817.34 3719.01 1798.19 3718.56 1781.1C3713.43 1765.83 3707.38 1750.97 3702.78 1735.5L3700.4 1734.32C3696.87 1717.56 3689.9 1700.45 3684.62 1684.09Z"/>
	<path fill="#221611" transform="scale(0.0309302 0.030928)" d="M3702.78 1735.5C3694.72 1700.38 3705.5 1608.94 3710.87 1570.19C3715.34 1580.96 3718.99 1591.28 3721.23 1602.74C3728.67 1640.91 3738.65 1764.29 3728.74 1798.91L3726.03 1797.98C3723.88 1793.25 3721.63 1784.94 3718.56 1781.1C3713.43 1765.83 3707.38 1750.97 3702.78 1735.5Z"/>
	<defs>
		<linearGradient id="gradient_13" gradientUnits="userSpaceOnUse" x1="3760.459" y1="1659.0189" x2="3682.5483" y2="1658.6664">
			<stop offset="0" stop-color="#E2DDBF"/>
			<stop offset="1" stop-color="#FCFAF3"/>
		</linearGradient>
	</defs>
	<path fill="url(#gradient_13)" transform="scale(0.0309302 0.030928)" d="M3682.28 1401.65C3678.14 1380.93 3677.96 1360.17 3680.85 1339.25C3683.87 1337.85 3682.76 1338.17 3685.71 1337.48C3686.35 1337.33 3687 1337.21 3687.64 1337.07L3690.73 1331.1L3692.68 1330.69C3704.57 1337.02 3710.17 1364.63 3715.16 1377.07Q3719.3 1392.52 3723.11 1408.06Q3726.92 1423.6 3730.39 1439.21Q3733.87 1454.83 3737 1470.51Q3740.14 1486.19 3742.93 1501.94Q3745.73 1517.69 3748.19 1533.49Q3750.64 1549.3 3752.76 1565.15Q3754.87 1581 3756.65 1596.9Q3758.42 1612.79 3759.85 1628.72Q3761.28 1644.65 3762.36 1660.6Q3763.45 1676.56 3764.19 1692.53Q3764.93 1708.51 3765.33 1724.49Q3765.72 1740.48 3765.77 1756.47Q3765.82 1772.46 3765.53 1788.45Q3765.24 1804.44 3764.6 1820.42Q3763.96 1836.4 3762.98 1852.36Q3762 1868.32 3760.67 1884.26C3758.47 1911.29 3758.77 1951.5 3745.58 1975.38L3742.14 1977.36C3736.18 1973.56 3734.67 1964.38 3733.24 1957.89C3725.77 1924.05 3727.92 1884.95 3735.51 1851.31C3739.57 1833.31 3745.27 1814.96 3747.29 1796.62C3754.55 1730.68 3740.14 1585.78 3717.44 1524.19C3706.93 1483.06 3690.96 1443.08 3682.28 1401.65Z"/>
	<path fill="#946F3A" transform="scale(0.0309302 0.030928)" d="M3529.96 1368.89Q3546.96 1388.08 3562.86 1408.18Q3578.76 1428.27 3593.53 1449.21C3605.7 1466.66 3616.63 1486.97 3630.72 1502.84L3631.76 1505.08L3634.2 1502.75C3638.65 1474.8 3625.16 1438.11 3620.48 1410.14C3625.05 1411.08 3629.56 1411.69 3634.18 1412.26C3648.89 1407.32 3654.32 1391.91 3661.44 1379.28C3664.46 1379.49 3666.76 1378.69 3668.78 1381.21C3670.98 1383.94 3671.86 1386.37 3673.23 1389.53C3675.65 1395.12 3677.72 1397.68 3682.28 1401.65C3690.96 1443.08 3706.93 1483.06 3717.44 1524.19C3717.31 1533.75 3718.6 1543.27 3718.42 1552.73L3720.46 1569.05L3719.54 1567C3711.97 1549.61 3695.84 1504.61 3691.82 1486.28C3688.82 1542.02 3697.43 1598.81 3688.42 1653.99C3686.59 1665.25 3682.98 1672.33 3684.62 1684.09C3667.09 1634.97 3645.78 1588.41 3623.88 1541.13C3610.9 1513.1 3598.87 1485.04 3582.83 1458.54C3565.57 1430.04 3536.83 1399.89 3522.82 1372.99Q3526.43 1371.01 3529.96 1368.89Z"/>
	<path fill="#E9D39A" transform="scale(0.0309302 0.030928)" d="M3661.44 1379.28C3664.46 1379.49 3666.76 1378.69 3668.78 1381.21C3670.98 1383.94 3671.86 1386.37 3673.23 1389.53C3675.65 1395.12 3677.72 1397.68 3682.28 1401.65C3690.96 1443.08 3706.93 1483.06 3717.44 1524.19C3717.31 1533.75 3718.6 1543.27 3718.42 1552.73C3706.77 1515.75 3699.73 1481.35 3680.94 1446.61C3674.23 1473.28 3679.63 1501.35 3672.58 1527.21C3670.96 1533.15 3669.17 1537.05 3663.68 1539.99C3661.79 1539.4 3660.99 1539.3 3659.23 1537.93C3650.29 1530.97 3636.5 1513.66 3634.2 1502.75C3638.65 1474.8 3625.16 1438.11 3620.48 1410.14C3625.05 1411.08 3629.56 1411.69 3634.18 1412.26C3648.89 1407.32 3654.32 1391.91 3661.44 1379.28Z"/>
	<path fill="#958A7E" transform="scale(0.0309302 0.030928)" d="M1919.7 456.781C1934.47 449.999 1949.6 442.054 1965.77 439.431C1998.26 434.157 2032.27 435.554 2065.1 435.702C2122.67 435.96 2179.72 437.398 2237.2 440.624C2270.99 442.52 2305.83 442.707 2339.21 448.39C2373.02 454.147 2403.6 473.787 2438.66 477.742C2517.73 486.663 2597.87 472.555 2676.18 492.26C2740.18 508.361 2803.19 538.346 2862.41 566.975C3088.63 676.345 3303.47 829.147 3446.74 1038.08C3514.82 1137.36 3565.3 1246.27 3603.46 1360C3609 1376.52 3615.87 1393.41 3620.48 1410.14C3625.16 1438.11 3638.65 1474.8 3634.2 1502.75L3631.76 1505.08L3630.72 1502.84C3578.81 1264.19 3472.87 1050.88 3296 879.154C3148.74 736.184 2959.48 612.136 2768.35 535.901C2730.51 520.811 2690.26 504.632 2650.06 497.413C2620.17 492.046 2588.27 494.134 2557.97 494.241L2436.08 494.489Q2193.55 493.77 1951.03 496.163L1953.69 943.119L2453.68 943.68L2606.71 944.325C2637.75 944.493 2669.3 943.563 2700.25 945.937C2674.12 950.252 1953.51 947.34 1949.01 945.566C1942.56 943.025 1938.01 939.436 1935.49 932.927C1935.83 921.4 1937.3 908.573 1936.01 897.133C1935.38 891.526 1935 891.291 1930.77 887.936L1931.03 886.369L1934.53 884.181C1940.22 862.716 1943.91 749.889 1935.09 731.075C1927.57 715.053 1911.04 704.681 1903.75 687.552C1897.24 672.229 1899.48 652.926 1892.61 638.516C1881.69 615.615 1898.43 547.331 1885.1 507.574C1891.75 486.068 1902.71 471.375 1919.7 456.781Z"/>
	<defs>
		<linearGradient id="gradient_14" gradientUnits="userSpaceOnUse" x1="2675.6748" y1="1067.1316" x2="3213.1587" y2="656.27136">
			<stop offset="0" stop-color="#916B3A"/>
			<stop offset="1" stop-color="#B2864A"/>
		</linearGradient>
	</defs>
	<path fill="url(#gradient_14)" transform="scale(0.0309302 0.030928)" d="M1843.1 383.57Q2064.32 387.392 2285.58 388.016Q2377.05 388.359 2468.5 390.199C2509.81 391.207 2556.44 390.432 2596.83 399.762C2613.22 401.568 2629.57 403.829 2645.65 407.482C2663.21 411.467 2695.01 423.213 2712 422.761Q2757.85 435.022 2803.38 448.377C2961.57 489.399 3130.99 590.442 3256.86 691.89C3274.97 706.488 3302.12 724.066 3315.03 743.467C3315.46 744.124 3315.7 744.894 3316.04 745.608C3296.48 729.06 3261.42 698.502 3239.68 686.927C3233.19 688.894 3229.28 692.925 3226.02 698.737C3223.33 703.531 3223 706.899 3223.36 712.28C3227.77 722.891 3291.69 781.367 3305.48 796.754C3336.01 830.818 3358.41 871.739 3389.2 906.176Q3423.25 944.868 3457.96 982.982C3515.2 1044.72 3611.36 1142.01 3643.96 1216.96C3654.89 1242.08 3658.32 1272.82 3662.45 1299.81C3666.42 1325.72 3670.05 1354.07 3661.44 1379.28C3654.32 1391.91 3648.89 1407.32 3634.18 1412.26C3629.56 1411.69 3625.05 1411.08 3620.48 1410.14C3615.87 1393.41 3609 1376.52 3603.46 1360C3565.3 1246.27 3514.82 1137.36 3446.74 1038.08C3303.47 829.147 3088.63 676.345 2862.41 566.975C2803.19 538.346 2740.18 508.361 2676.18 492.26C2597.87 472.555 2517.73 486.663 2438.66 477.742C2403.6 473.787 2373.02 454.147 2339.21 448.39C2305.83 442.707 2270.99 442.52 2237.2 440.624C2179.72 437.398 2122.67 435.96 2065.1 435.702C2032.27 435.554 1998.26 434.157 1965.77 439.431C1949.6 442.054 1934.47 449.999 1919.7 456.781C1902.71 471.375 1891.75 486.068 1885.1 507.574C1898.43 547.331 1881.69 615.615 1892.61 638.516C1899.48 652.926 1897.24 672.229 1903.75 687.552C1911.04 704.681 1927.57 715.053 1935.09 731.075C1943.91 749.889 1940.22 862.716 1934.53 884.181L1931.03 886.369L1915.33 883.084L1910.68 882.051C1889.37 882.12 1868.08 880.135 1850.42 894.004C1854.74 824.746 1851.5 753.709 1851.45 684.263C1851.39 584.253 1854.96 482.969 1843.1 383.57Z"/>
	<path fill="#946F3A" transform="scale(0.0309302 0.030928)" d="M2803.38 448.377L2810.21 454.13L2808.95 455.021C2796.24 450.688 2785.61 448.869 2772.19 448.378C2780.73 451.849 2789.07 455.219 2797.14 459.689L2796.48 461.383C2789.94 461.443 2782.89 458.056 2776.65 456.054C2740.72 444.533 2703.38 437.538 2666.42 430.094C2652.94 427.378 2622.93 427.813 2612.98 420.428C2615.58 420.783 2618.07 421.253 2620.63 421.783L2616.82 415.616L2618.92 413.643C2621.48 415.81 2622.63 416.6 2625.87 417.83C2630.35 414.375 2634.76 413.821 2640.16 412.492C2619.13 402.739 2591.52 408.473 2569.34 402.398C2556.41 398.856 2542.99 401.517 2529.72 398.877L2529.19 396.847C2550.98 395.531 2572.92 399.869 2594.78 399.786L2596.83 399.762C2613.22 401.568 2629.57 403.829 2645.65 407.482C2663.21 411.467 2695.01 423.213 2712 422.761Q2757.85 435.022 2803.38 448.377Z"/>
	<path fill="#524131" transform="scale(0.0309302 0.030928)" d="M1857.08 432.685C1858.99 436.872 1860.47 439.758 1863.78 443.007L1861.17 440.269L1864.2 442.671L1864.66 439.597C1868.41 442.308 1868.02 444.155 1868.63 448.695C1872.03 474.197 1865.53 502.61 1870.73 527.515L1870.81 525.352C1871.75 504.993 1891.61 473.161 1906.78 459.667C1913.38 453.795 1920.25 448.861 1929.03 447.014L1919.7 456.781C1902.71 471.375 1891.75 486.068 1885.1 507.574L1879.61 541.378C1879.65 541.981 1879.7 542.584 1879.73 543.188C1880.89 563.985 1877.64 585.072 1877.68 605.941C1877.75 638.874 1880.91 671.665 1880.89 704.633C1880.88 740.045 1871.31 844.437 1898.97 870.448C1904.29 875.458 1915.44 877.833 1922.3 880.13C1920.27 882.663 1918.41 882.352 1915.33 883.084L1910.68 882.051C1897.47 876.807 1875.79 879.526 1861.34 879.612L1859.03 879.19C1853.28 871.193 1862.38 579.087 1862.29 545.553C1862.19 508.138 1860.61 469.917 1857.08 432.685Z"/>
	<path fill="#674829" transform="scale(0.0309302 0.030928)" d="M1888.99 875.961L1887.85 874.744C1887.23 874.064 1886.62 873.368 1885.99 872.695C1881.5 867.924 1878.51 864.927 1877.43 858.174C1872.23 825.629 1869.56 554.949 1879.61 541.378C1879.65 541.981 1879.7 542.584 1879.73 543.188C1880.89 563.985 1877.64 585.072 1877.68 605.941C1877.75 638.874 1880.91 671.665 1880.89 704.633C1880.88 740.045 1871.31 844.437 1898.97 870.448C1904.29 875.458 1915.44 877.833 1922.3 880.13C1920.27 882.663 1918.41 882.352 1915.33 883.084L1910.68 882.051C1897.47 876.807 1875.79 879.526 1861.34 879.612C1870.4 877.872 1879.82 877.115 1888.99 875.961Z"/>
	<defs>
		<linearGradient id="gradient_15" gradientUnits="userSpaceOnUse" x1="1875.5974" y1="788.07465" x2="1937.4049" y2="772.60681">
			<stop offset="0" stop-color="#745834"/>
			<stop offset="1" stop-color="#A48A62"/>
		</linearGradient>
	</defs>
	<path fill="url(#gradient_15)" transform="scale(0.0309302 0.030928)" d="M1879.61 541.378L1885.1 507.574C1898.43 547.331 1881.69 615.615 1892.61 638.516C1899.48 652.926 1897.24 672.229 1903.75 687.552C1911.04 704.681 1927.57 715.053 1935.09 731.075C1943.91 749.889 1940.22 862.716 1934.53 884.181L1931.03 886.369L1915.33 883.084C1918.41 882.352 1920.27 882.663 1922.3 880.13C1915.44 877.833 1904.29 875.458 1898.97 870.448C1871.31 844.437 1880.88 740.045 1880.89 704.633C1880.91 671.665 1877.75 638.874 1877.68 605.941C1877.64 585.072 1880.89 563.985 1879.73 543.188C1879.7 542.584 1879.65 541.981 1879.61 541.378Z"/>
	<path fill="#674829" transform="scale(0.0309302 0.030928)" d="M1847.23 386.713Q1957.35 388.637 2067.35 394.017C2123.04 397.026 2180.21 398.038 2234.23 413.514C2237.58 414.475 2239.86 414.21 2243.18 413.323C2240.15 418.69 2236.81 420.726 2230.87 422.562C2215.88 427.202 2119.78 428.272 2096.07 429.014C2057.07 430.235 2010.9 428.082 1972.96 433.588C1958.11 435.744 1942.75 445.853 1929.03 447.014C1920.25 448.861 1913.38 453.795 1906.78 459.667C1891.61 473.161 1871.75 504.993 1870.81 525.352L1870.73 527.515C1865.53 502.61 1872.03 474.197 1868.63 448.695C1868.02 444.155 1868.41 442.308 1864.66 439.597L1864.2 442.671L1861.17 440.269L1863.78 443.007C1860.47 439.758 1858.99 436.872 1857.08 432.685C1853.63 417.404 1849.99 402.136 1847.23 386.713Z"/>
</svg>
